<mxfile host="Electron" agent="Mozilla/5.0 (X11; Linux x86_64) AppleWebKit/537.36 (KHTML, like Gecko) draw.io/26.1.1 Chrome/132.0.6834.210 Electron/34.3.3 Safari/537.36" version="26.1.1">
  <diagram name="Seite-1" id="csdIJRSFdkb7ehb21UQN">
    <mxGraphModel dx="3695" dy="2847" grid="1" gridSize="1" guides="1" tooltips="1" connect="1" arrows="1" fold="1" page="1" pageScale="1" pageWidth="827" pageHeight="1169" math="0" shadow="0">
      <root>
        <mxCell id="0" />
        <mxCell id="1" parent="0" />
        <mxCell id="ondcEIx-Vq4pANqkUfm2-303" value="" style="rounded=1;whiteSpace=wrap;html=1;fillColor=#A4A9D8;strokeColor=#26292E;strokeWidth=1;sketch=1;curveFitting=1;jiggle=2;fontFamily=Courier New;labelBackgroundColor=none;" parent="1" vertex="1">
          <mxGeometry x="35" y="-55" width="410" height="500" as="geometry" />
        </mxCell>
        <mxCell id="ondcEIx-Vq4pANqkUfm2-304" value="" style="rounded=1;whiteSpace=wrap;html=1;fillColor=#A4A9D8;strokeColor=#A4A9D8;strokeWidth=1;sketch=1;curveFitting=1;jiggle=2;fontFamily=Courier New;labelBackgroundColor=none;" parent="1" vertex="1">
          <mxGeometry x="35" y="-50" width="400" height="490" as="geometry" />
        </mxCell>
        <mxCell id="ondcEIx-Vq4pANqkUfm2-305" value="" style="rounded=1;whiteSpace=wrap;html=1;strokeWidth=2;sketch=1;curveFitting=1;jiggle=2;fontFamily=Courier New;labelBackgroundColor=none;fillColor=#A4A9D8;" parent="1" vertex="1">
          <mxGeometry x="40" y="-50" width="400" height="490" as="geometry" />
        </mxCell>
        <mxCell id="ondcEIx-Vq4pANqkUfm2-306" value="" style="rounded=1;whiteSpace=wrap;html=1;fillColor=#666666;strokeColor=#26292E;strokeWidth=2;sketch=1;curveFitting=1;jiggle=2;fontFamily=Courier New;labelBackgroundColor=none;gradientColor=#666666;" parent="1" vertex="1">
          <mxGeometry x="55" y="275" width="370" height="145" as="geometry" />
        </mxCell>
        <mxCell id="ondcEIx-Vq4pANqkUfm2-307" value="" style="rounded=1;whiteSpace=wrap;html=1;fillColor=#A4A9D8;strokeColor=#26292E;strokeWidth=2;sketch=1;curveFitting=1;jiggle=2;fontFamily=Courier New;labelBackgroundColor=none;fontColor=#333333;gradientColor=none;" parent="1" vertex="1">
          <mxGeometry x="60" y="280" width="360" height="135" as="geometry" />
        </mxCell>
        <mxCell id="ondcEIx-Vq4pANqkUfm2-308" value="" style="rounded=1;whiteSpace=wrap;html=1;strokeWidth=1;sketch=1;curveFitting=1;jiggle=2;fontFamily=Courier New;labelBackgroundColor=none;fillColor=#666666;gradientColor=#666666;" parent="1" vertex="1">
          <mxGeometry x="60" y="340" width="360" height="65" as="geometry" />
        </mxCell>
        <mxCell id="ondcEIx-Vq4pANqkUfm2-309" value="" style="rounded=1;whiteSpace=wrap;html=1;fillColor=#26292E;strokeColor=#26292E;strokeWidth=2;sketch=1;curveFitting=1;jiggle=2;fontFamily=Courier New;labelBackgroundColor=none;" parent="1" vertex="1">
          <mxGeometry x="55" y="-35" width="370" height="290" as="geometry" />
        </mxCell>
        <mxCell id="ondcEIx-Vq4pANqkUfm2-310" value="" style="rounded=1;whiteSpace=wrap;html=1;fillColor=#A4A9D8;strokeColor=#26292E;strokeWidth=1;sketch=1;curveFitting=1;jiggle=2;fontFamily=Courier New;labelBackgroundColor=none;" parent="1" vertex="1">
          <mxGeometry x="60" y="-30" width="360" height="280" as="geometry" />
        </mxCell>
        <mxCell id="ondcEIx-Vq4pANqkUfm2-311" value="" style="rounded=1;whiteSpace=wrap;html=1;fillColor=#666666;strokeColor=#26292E;strokeWidth=1;sketch=1;curveFitting=1;jiggle=2;fontFamily=Courier New;labelBackgroundColor=none;fontColor=#333333;gradientColor=#666666;" parent="1" vertex="1">
          <mxGeometry x="345" y="290" width="45" height="40" as="geometry" />
        </mxCell>
        <mxCell id="ondcEIx-Vq4pANqkUfm2-312" value="" style="rounded=1;whiteSpace=wrap;html=1;fillColor=#666666;strokeColor=#26292E;strokeWidth=1;sketch=1;curveFitting=1;jiggle=2;fontFamily=Courier New;labelBackgroundColor=none;fontColor=#333333;gradientColor=#666666;" parent="1" vertex="1">
          <mxGeometry x="90" y="290" width="100" height="40" as="geometry" />
        </mxCell>
        <mxCell id="ondcEIx-Vq4pANqkUfm2-313" value="" style="rounded=1;whiteSpace=wrap;html=1;fillColor=#666666;strokeColor=#26292E;strokeWidth=1;sketch=1;curveFitting=1;jiggle=2;fontFamily=Courier New;labelBackgroundColor=none;fontColor=#333333;gradientColor=#666666;" parent="1" vertex="1">
          <mxGeometry x="290" y="290" width="45" height="40" as="geometry" />
        </mxCell>
        <mxCell id="ondcEIx-Vq4pANqkUfm2-314" value="" style="rounded=1;whiteSpace=wrap;html=1;fillColor=#666666;strokeColor=#26292E;strokeWidth=1;sketch=1;curveFitting=1;jiggle=2;fontFamily=Courier New;labelBackgroundColor=none;fontColor=#333333;gradientColor=#666666;" parent="1" vertex="1">
          <mxGeometry x="200" y="290" width="80" height="40" as="geometry" />
        </mxCell>
        <mxCell id="ondcEIx-Vq4pANqkUfm2-315" value="" style="rounded=1;whiteSpace=wrap;html=1;strokeWidth=2;sketch=1;curveFitting=1;jiggle=2;fontFamily=Courier New;labelBackgroundColor=none;fillColor=#A4A9D8;gradientColor=#A4A9D8;" parent="1" vertex="1">
          <mxGeometry x="65" y="345" width="115" height="55" as="geometry" />
        </mxCell>
        <mxCell id="ondcEIx-Vq4pANqkUfm2-316" value="Bit 4 Bit" style="rounded=1;whiteSpace=wrap;html=1;hachureGap=4;fontFamily=architects daughter;fontSize=18;fontStyle=1;strokeWidth=1;sketch=1;curveFitting=1;jiggle=2;labelBackgroundColor=none;" parent="1" vertex="1">
          <mxGeometry x="195" y="-55" width="95" height="25" as="geometry" />
        </mxCell>
        <mxCell id="ondcEIx-Vq4pANqkUfm2-317" value="" style="rounded=1;whiteSpace=wrap;html=1;fillColor=#A4A9D8;strokeColor=#26292E;strokeWidth=1;sketch=1;curveFitting=1;jiggle=2;fontFamily=Courier New;labelBackgroundColor=none;gradientColor=#A4A9D8;" parent="1" vertex="1">
          <mxGeometry x="95" y="295" width="90" height="30" as="geometry" />
        </mxCell>
        <mxCell id="ondcEIx-Vq4pANqkUfm2-318" value="" style="rounded=1;whiteSpace=wrap;html=1;fillColor=#A4A9D8;strokeColor=#26292E;strokeWidth=1;sketch=1;curveFitting=1;jiggle=2;fontFamily=Courier New;labelBackgroundColor=none;gradientColor=#A4A9D8;" parent="1" vertex="1">
          <mxGeometry x="205" y="295" width="70" height="30" as="geometry" />
        </mxCell>
        <mxCell id="ondcEIx-Vq4pANqkUfm2-319" value="" style="rounded=1;whiteSpace=wrap;html=1;fillColor=#A4A9D8;strokeColor=#26292E;strokeWidth=1;sketch=1;curveFitting=1;jiggle=2;fontFamily=Courier New;labelBackgroundColor=none;gradientColor=#A4A9D8;" parent="1" vertex="1">
          <mxGeometry x="295" y="295" width="35" height="30" as="geometry" />
        </mxCell>
        <mxCell id="ondcEIx-Vq4pANqkUfm2-320" value="" style="rounded=1;whiteSpace=wrap;html=1;fillColor=#A4A9D8;strokeColor=#26292E;strokeWidth=1;sketch=1;curveFitting=1;jiggle=2;fontFamily=Courier New;labelBackgroundColor=none;gradientColor=#A4A9D8;" parent="1" vertex="1">
          <mxGeometry x="350" y="295" width="35" height="30" as="geometry" />
        </mxCell>
        <mxCell id="ondcEIx-Vq4pANqkUfm2-321" value="" style="rounded=1;whiteSpace=wrap;html=1;strokeWidth=2;sketch=1;curveFitting=1;jiggle=2;fontFamily=Courier New;labelBackgroundColor=none;fillColor=#A4A9D8;gradientColor=#A4A9D8;" parent="1" vertex="1">
          <mxGeometry x="183" y="345" width="117" height="55" as="geometry" />
        </mxCell>
        <mxCell id="ondcEIx-Vq4pANqkUfm2-322" value="" style="rounded=1;whiteSpace=wrap;html=1;strokeWidth=2;sketch=1;curveFitting=1;jiggle=2;fontFamily=Courier New;labelBackgroundColor=none;fillColor=#A4A9D8;gradientColor=#A4A9D8;" parent="1" vertex="1">
          <mxGeometry x="300" y="345" width="114" height="55" as="geometry" />
        </mxCell>
        <mxCell id="ondcEIx-Vq4pANqkUfm2-282" value="" style="rounded=1;whiteSpace=wrap;html=1;strokeWidth=3;sketch=1;curveFitting=1;jiggle=2;fontFamily=Courier New;labelBackgroundColor=none;labelBorderColor=none;textShadow=1;fillColor=#BAC8D3;strokeColor=#23445D;gradientColor=#BAC8D3;shadow=1;" parent="1" vertex="1">
          <mxGeometry x="-89.5" y="543" width="516" height="47" as="geometry" />
        </mxCell>
        <mxCell id="ondcEIx-Vq4pANqkUfm2-283" value="" style="rounded=1;whiteSpace=wrap;html=1;sketch=1;hachureGap=4;jiggle=2;curveFitting=1;fontFamily=Courier New;strokeColor=#23445D;strokeWidth=3;labelBackgroundColor=none;fillColor=#BAC8D3;labelBorderColor=none;textShadow=1;gradientColor=#BAC8D3;shadow=1;" parent="1" vertex="1">
          <mxGeometry x="-89.5" y="543" width="48" height="47" as="geometry" />
        </mxCell>
        <mxCell id="ondcEIx-Vq4pANqkUfm2-284" value="B" style="rounded=1;whiteSpace=wrap;html=1;fontSize=46;sketch=1;curveFitting=1;jiggle=2;fontFamily=architects daughter;strokeWidth=3;labelBackgroundColor=none;labelBorderColor=none;textShadow=1;fillColor=#BAC8D3;strokeColor=#23445D;gradientColor=#BAC8D3;shadow=1;" parent="1" vertex="1">
          <mxGeometry x="-84.5" y="548" width="40" height="36" as="geometry" />
        </mxCell>
        <mxCell id="ondcEIx-Vq4pANqkUfm2-291" value="" style="rounded=1;whiteSpace=wrap;html=1;strokeWidth=2;sketch=1;curveFitting=1;jiggle=2;fontFamily=Courier New;labelBackgroundColor=none;textShadow=0;" parent="1" vertex="1">
          <mxGeometry x="504" y="486" width="516" height="47" as="geometry" />
        </mxCell>
        <mxCell id="ondcEIx-Vq4pANqkUfm2-292" value="" style="rounded=1;whiteSpace=wrap;html=1;sketch=1;hachureGap=4;jiggle=2;curveFitting=1;fontFamily=Courier New;strokeColor=#26292E;strokeWidth=2;labelBackgroundColor=none;fillColor=#A4A9D8;textShadow=0;" parent="1" vertex="1">
          <mxGeometry x="504" y="486" width="48" height="47" as="geometry" />
        </mxCell>
        <mxCell id="ondcEIx-Vq4pANqkUfm2-293" value="D" style="rounded=1;whiteSpace=wrap;html=1;fontSize=46;sketch=1;curveFitting=1;jiggle=2;fontFamily=architects daughter;strokeWidth=2;labelBackgroundColor=none;textShadow=0;" parent="1" vertex="1">
          <mxGeometry x="509" y="491" width="40" height="36" as="geometry" />
        </mxCell>
        <mxCell id="ondcEIx-Vq4pANqkUfm2-294" value="" style="rounded=1;whiteSpace=wrap;html=1;strokeWidth=2;sketch=1;curveFitting=1;jiggle=2;fontFamily=Courier New;labelBackgroundColor=none;" parent="1" vertex="1">
          <mxGeometry x="507.5" y="426" width="516" height="47" as="geometry" />
        </mxCell>
        <mxCell id="ondcEIx-Vq4pANqkUfm2-295" value="" style="rounded=1;whiteSpace=wrap;html=1;sketch=1;hachureGap=4;jiggle=2;curveFitting=1;fontFamily=Courier New;strokeColor=#26292E;strokeWidth=2;labelBackgroundColor=none;fillColor=#A4A9D8;" parent="1" vertex="1">
          <mxGeometry x="507.5" y="426" width="48" height="47" as="geometry" />
        </mxCell>
        <mxCell id="ondcEIx-Vq4pANqkUfm2-296" value="C" style="rounded=1;whiteSpace=wrap;html=1;fontSize=46;sketch=1;curveFitting=1;jiggle=2;fontFamily=architects daughter;strokeWidth=2;labelBackgroundColor=none;" parent="1" vertex="1">
          <mxGeometry x="512.5" y="431" width="40" height="36" as="geometry" />
        </mxCell>
        <mxCell id="ondcEIx-Vq4pANqkUfm2-297" value="" style="rounded=1;whiteSpace=wrap;html=1;strokeWidth=2;sketch=1;curveFitting=1;jiggle=2;fontFamily=Courier New;labelBackgroundColor=none;" parent="1" vertex="1">
          <mxGeometry x="507.5" y="369" width="516" height="47" as="geometry" />
        </mxCell>
        <mxCell id="ondcEIx-Vq4pANqkUfm2-298" value="" style="rounded=1;whiteSpace=wrap;html=1;sketch=1;hachureGap=4;jiggle=2;curveFitting=1;fontFamily=Courier New;strokeColor=#26292E;strokeWidth=2;labelBackgroundColor=none;fillColor=#A4A9D8;" parent="1" vertex="1">
          <mxGeometry x="507.5" y="369" width="48" height="47" as="geometry" />
        </mxCell>
        <mxCell id="ondcEIx-Vq4pANqkUfm2-299" value="B" style="rounded=1;whiteSpace=wrap;html=1;fontSize=46;sketch=1;curveFitting=1;jiggle=2;fontFamily=architects daughter;strokeWidth=2;labelBackgroundColor=none;" parent="1" vertex="1">
          <mxGeometry x="512.5" y="374" width="40" height="36" as="geometry" />
        </mxCell>
        <mxCell id="ondcEIx-Vq4pANqkUfm2-323" value="" style="rounded=1;whiteSpace=wrap;html=1;strokeWidth=2;sketch=1;curveFitting=1;jiggle=2;fontFamily=Courier New;labelBackgroundColor=none;" parent="1" vertex="1">
          <mxGeometry x="485" y="-165" width="515" height="215" as="geometry" />
        </mxCell>
        <mxCell id="ondcEIx-Vq4pANqkUfm2-326" value="EASY" style="rounded=1;whiteSpace=wrap;html=1;sketch=1;curveFitting=1;jiggle=2;fontFamily=architects daughter;strokeWidth=1;labelBackgroundColor=none;fillColor=#D5E8D4;strokeColor=#82b366;gradientColor=#D5E8D4;fontSize=20;" parent="1" vertex="1">
          <mxGeometry x="512.5" y="165" width="70" height="27.5" as="geometry" />
        </mxCell>
        <mxCell id="ondcEIx-Vq4pANqkUfm2-327" value="MEDIUM" style="rounded=1;whiteSpace=wrap;html=1;sketch=1;curveFitting=1;jiggle=2;fontFamily=architects daughter;strokeWidth=1;labelBackgroundColor=none;fillColor=#FFE6CC;strokeColor=#D79B00;gradientColor=#FFE6CC;fontSize=18;" parent="1" vertex="1">
          <mxGeometry x="512.5" y="202.5" width="70" height="27.5" as="geometry" />
        </mxCell>
        <mxCell id="ondcEIx-Vq4pANqkUfm2-329" value="HARD" style="rounded=1;whiteSpace=wrap;html=1;sketch=1;curveFitting=1;jiggle=2;fontFamily=architects daughter;strokeWidth=1;labelBackgroundColor=none;fillColor=#F8CECC;strokeColor=#b85450;fontSize=18;gradientColor=#F8CECC;" parent="1" vertex="1">
          <mxGeometry x="512.5" y="127.5" width="70" height="27.5" as="geometry" />
        </mxCell>
        <mxCell id="ondcEIx-Vq4pANqkUfm2-335" value="" style="rounded=1;whiteSpace=wrap;html=1;strokeWidth=1;sketch=1;curveFitting=1;jiggle=2;fontFamily=Courier New;labelBackgroundColor=none;" parent="1" vertex="1">
          <mxGeometry x="650" y="90" width="160" height="80" as="geometry" />
        </mxCell>
        <mxCell id="ondcEIx-Vq4pANqkUfm2-336" value="" style="rounded=1;whiteSpace=wrap;html=1;strokeWidth=3;sketch=1;curveFitting=1;jiggle=2;fontFamily=Courier New;labelBackgroundColor=none;labelBorderColor=none;textShadow=1;fillColor=#BAC8D3;strokeColor=#23445D;gradientColor=#BAC8D3;shadow=1;" parent="1" vertex="1">
          <mxGeometry x="-89.5" y="477" width="516" height="47" as="geometry" />
        </mxCell>
        <mxCell id="ondcEIx-Vq4pANqkUfm2-337" value="" style="rounded=1;whiteSpace=wrap;html=1;sketch=1;hachureGap=4;jiggle=2;curveFitting=1;fontFamily=Courier New;strokeColor=#23445D;strokeWidth=3;labelBackgroundColor=none;fillColor=#BAC8D3;labelBorderColor=none;textShadow=1;gradientColor=#BAC8D3;shadow=1;" parent="1" vertex="1">
          <mxGeometry x="-89.5" y="477" width="48" height="47" as="geometry" />
        </mxCell>
        <mxCell id="ondcEIx-Vq4pANqkUfm2-338" value="A" style="rounded=1;whiteSpace=wrap;html=1;fontSize=46;sketch=1;curveFitting=1;jiggle=2;fontFamily=architects daughter;strokeWidth=3;labelBackgroundColor=none;labelBorderColor=none;textShadow=1;fillColor=#BAC8D3;strokeColor=#23445D;gradientColor=#BAC8D3;shadow=1;" parent="1" vertex="1">
          <mxGeometry x="-84.5" y="482" width="40" height="36" as="geometry" />
        </mxCell>
        <mxCell id="ondcEIx-Vq4pANqkUfm2-339" value="" style="rounded=1;whiteSpace=wrap;html=1;strokeWidth=3;sketch=1;curveFitting=1;jiggle=2;fontFamily=Courier New;labelBackgroundColor=none;labelBorderColor=none;textShadow=1;fillColor=#BAC8D3;strokeColor=#23445D;gradientColor=#BAC8D3;shadow=1;" parent="1" vertex="1">
          <mxGeometry x="-88" y="606" width="516" height="47" as="geometry" />
        </mxCell>
        <mxCell id="ondcEIx-Vq4pANqkUfm2-340" value="" style="rounded=1;whiteSpace=wrap;html=1;sketch=1;hachureGap=4;jiggle=2;curveFitting=1;fontFamily=Courier New;strokeColor=#23445D;strokeWidth=3;labelBackgroundColor=none;fillColor=#BAC8D3;labelBorderColor=none;textShadow=1;gradientColor=#BAC8D3;shadow=1;" parent="1" vertex="1">
          <mxGeometry x="-88" y="606" width="48" height="47" as="geometry" />
        </mxCell>
        <mxCell id="ondcEIx-Vq4pANqkUfm2-341" value="C" style="rounded=1;whiteSpace=wrap;html=1;fontSize=46;sketch=1;curveFitting=1;jiggle=2;fontFamily=architects daughter;strokeWidth=3;labelBackgroundColor=none;labelBorderColor=none;textShadow=1;fillColor=#BAC8D3;strokeColor=#23445D;gradientColor=#BAC8D3;shadow=1;" parent="1" vertex="1">
          <mxGeometry x="-83" y="611" width="40" height="36" as="geometry" />
        </mxCell>
        <mxCell id="ondcEIx-Vq4pANqkUfm2-342" value="" style="rounded=1;whiteSpace=wrap;html=1;strokeWidth=3;sketch=1;curveFitting=1;jiggle=2;fontFamily=Courier New;labelBackgroundColor=none;labelBorderColor=none;textShadow=1;fillColor=#BAC8D3;strokeColor=#23445D;gradientColor=#BAC8D3;shadow=1;" parent="1" vertex="1">
          <mxGeometry x="-89.5" y="669" width="516" height="47" as="geometry" />
        </mxCell>
        <mxCell id="ondcEIx-Vq4pANqkUfm2-343" value="" style="rounded=1;whiteSpace=wrap;html=1;sketch=1;hachureGap=4;jiggle=2;curveFitting=1;fontFamily=Courier New;strokeColor=#23445D;strokeWidth=3;labelBackgroundColor=none;fillColor=#BAC8D3;labelBorderColor=none;textShadow=1;gradientColor=#BAC8D3;shadow=1;" parent="1" vertex="1">
          <mxGeometry x="-89.5" y="669" width="48" height="47" as="geometry" />
        </mxCell>
        <mxCell id="ondcEIx-Vq4pANqkUfm2-344" value="D" style="rounded=1;whiteSpace=wrap;html=1;fontSize=46;sketch=1;curveFitting=1;jiggle=2;fontFamily=architects daughter;strokeWidth=3;labelBackgroundColor=none;labelBorderColor=none;textShadow=1;fillColor=#BAC8D3;strokeColor=#23445D;gradientColor=#BAC8D3;shadow=1;" parent="1" vertex="1">
          <mxGeometry x="-84.5" y="674" width="40" height="36" as="geometry" />
        </mxCell>
        <mxCell id="ondcEIx-Vq4pANqkUfm2-345" value="" style="rounded=1;whiteSpace=wrap;html=1;strokeWidth=4;sketch=1;curveFitting=1;jiggle=2;fontFamily=Courier New;labelBackgroundColor=none;labelBorderColor=none;textShadow=1;fillColor=#D5E8D4;strokeColor=#82b366;shadow=1;gradientColor=#D5E8D4;" parent="1" vertex="1">
          <mxGeometry x="-94.5" y="768" width="516" height="47" as="geometry" />
        </mxCell>
        <mxCell id="ondcEIx-Vq4pANqkUfm2-346" value="" style="rounded=1;whiteSpace=wrap;html=1;sketch=1;hachureGap=4;jiggle=2;curveFitting=1;fontFamily=Courier New;strokeColor=#82b366;strokeWidth=4;labelBackgroundColor=none;fillColor=#D5E8D4;labelBorderColor=none;textShadow=1;shadow=1;gradientColor=#D5E8D4;" parent="1" vertex="1">
          <mxGeometry x="-94.5" y="768" width="48" height="47" as="geometry" />
        </mxCell>
        <mxCell id="ondcEIx-Vq4pANqkUfm2-347" value="A" style="rounded=1;whiteSpace=wrap;html=1;fontSize=46;sketch=1;curveFitting=1;jiggle=2;fontFamily=architects daughter;strokeWidth=4;labelBackgroundColor=none;labelBorderColor=none;textShadow=1;fillColor=#D5E8D4;strokeColor=#82b366;shadow=1;gradientColor=#D5E8D4;" parent="1" vertex="1">
          <mxGeometry x="-89.5" y="773" width="40" height="36" as="geometry" />
        </mxCell>
        <mxCell id="ondcEIx-Vq4pANqkUfm2-348" value="" style="rounded=1;whiteSpace=wrap;html=1;strokeWidth=4;sketch=1;curveFitting=1;jiggle=2;fontFamily=Courier New;labelBackgroundColor=none;labelBorderColor=none;textShadow=1;fillColor=#D5E8D4;strokeColor=#82b366;shadow=1;gradientColor=#D5E8D4;" parent="1" vertex="1">
          <mxGeometry x="-99" y="828" width="516" height="47" as="geometry" />
        </mxCell>
        <mxCell id="ondcEIx-Vq4pANqkUfm2-349" value="" style="rounded=1;whiteSpace=wrap;html=1;sketch=1;hachureGap=4;jiggle=2;curveFitting=1;fontFamily=Courier New;strokeColor=#82b366;strokeWidth=4;labelBackgroundColor=none;fillColor=#D5E8D4;labelBorderColor=none;textShadow=1;shadow=1;gradientColor=#D5E8D4;" parent="1" vertex="1">
          <mxGeometry x="-99" y="828" width="48" height="47" as="geometry" />
        </mxCell>
        <mxCell id="ondcEIx-Vq4pANqkUfm2-350" value="B" style="rounded=1;whiteSpace=wrap;html=1;fontSize=46;sketch=1;curveFitting=1;jiggle=2;fontFamily=architects daughter;strokeWidth=4;labelBackgroundColor=none;labelBorderColor=none;textShadow=1;fillColor=#D5E8D4;strokeColor=#82b366;shadow=1;gradientColor=#D5E8D4;" parent="1" vertex="1">
          <mxGeometry x="-94" y="833" width="40" height="36" as="geometry" />
        </mxCell>
        <mxCell id="ondcEIx-Vq4pANqkUfm2-351" value="" style="rounded=1;whiteSpace=wrap;html=1;strokeWidth=4;sketch=1;curveFitting=1;jiggle=2;fontFamily=Courier New;labelBackgroundColor=none;labelBorderColor=none;textShadow=1;fillColor=#D5E8D4;strokeColor=#82b366;shadow=1;gradientColor=#D5E8D4;" parent="1" vertex="1">
          <mxGeometry x="-96" y="885" width="516" height="47" as="geometry" />
        </mxCell>
        <mxCell id="ondcEIx-Vq4pANqkUfm2-352" value="" style="rounded=1;whiteSpace=wrap;html=1;sketch=1;hachureGap=4;jiggle=2;curveFitting=1;fontFamily=Courier New;strokeColor=#82b366;strokeWidth=4;labelBackgroundColor=none;fillColor=#D5E8D4;labelBorderColor=none;textShadow=1;shadow=1;gradientColor=#D5E8D4;" parent="1" vertex="1">
          <mxGeometry x="-96" y="885" width="48" height="47" as="geometry" />
        </mxCell>
        <mxCell id="ondcEIx-Vq4pANqkUfm2-353" value="C" style="rounded=1;whiteSpace=wrap;html=1;fontSize=46;sketch=1;curveFitting=1;jiggle=2;fontFamily=architects daughter;strokeWidth=4;labelBackgroundColor=none;labelBorderColor=none;textShadow=1;fillColor=#D5E8D4;strokeColor=#82b366;shadow=1;gradientColor=#D5E8D4;" parent="1" vertex="1">
          <mxGeometry x="-91" y="890" width="40" height="36" as="geometry" />
        </mxCell>
        <mxCell id="ondcEIx-Vq4pANqkUfm2-354" value="" style="rounded=1;whiteSpace=wrap;html=1;strokeWidth=4;sketch=1;curveFitting=1;jiggle=2;fontFamily=Courier New;labelBackgroundColor=none;labelBorderColor=none;textShadow=1;fillColor=#D5E8D4;strokeColor=#82b366;shadow=1;gradientColor=#D5E8D4;" parent="1" vertex="1">
          <mxGeometry x="-93" y="948" width="516" height="47" as="geometry" />
        </mxCell>
        <mxCell id="ondcEIx-Vq4pANqkUfm2-355" value="" style="rounded=1;whiteSpace=wrap;html=1;sketch=1;hachureGap=4;jiggle=2;curveFitting=1;fontFamily=Courier New;strokeColor=#82b366;strokeWidth=4;labelBackgroundColor=none;fillColor=#D5E8D4;labelBorderColor=none;textShadow=1;shadow=1;gradientColor=#D5E8D4;" parent="1" vertex="1">
          <mxGeometry x="-93" y="948" width="48" height="47" as="geometry" />
        </mxCell>
        <mxCell id="ondcEIx-Vq4pANqkUfm2-356" value="D" style="rounded=1;whiteSpace=wrap;html=1;fontSize=46;sketch=1;curveFitting=1;jiggle=2;fontFamily=architects daughter;strokeWidth=4;labelBackgroundColor=none;labelBorderColor=none;textShadow=1;fillColor=#D5E8D4;strokeColor=#82b366;shadow=1;gradientColor=#D5E8D4;" parent="1" vertex="1">
          <mxGeometry x="-88" y="953" width="40" height="36" as="geometry" />
        </mxCell>
        <mxCell id="ondcEIx-Vq4pANqkUfm2-357" value="" style="rounded=1;whiteSpace=wrap;html=1;strokeWidth=2;sketch=1;curveFitting=1;jiggle=2;fontFamily=Courier New;labelBackgroundColor=none;" parent="1" vertex="1">
          <mxGeometry x="509" y="309" width="516" height="47" as="geometry" />
        </mxCell>
        <mxCell id="ondcEIx-Vq4pANqkUfm2-358" value="" style="rounded=1;whiteSpace=wrap;html=1;sketch=1;hachureGap=4;jiggle=2;curveFitting=1;fontFamily=Courier New;strokeColor=#26292E;strokeWidth=2;labelBackgroundColor=none;fillColor=#A4A9D8;" parent="1" vertex="1">
          <mxGeometry x="509" y="309" width="48" height="47" as="geometry" />
        </mxCell>
        <mxCell id="ondcEIx-Vq4pANqkUfm2-359" value="A" style="rounded=1;whiteSpace=wrap;html=1;fontSize=46;sketch=1;curveFitting=1;jiggle=2;fontFamily=architects daughter;strokeWidth=2;labelBackgroundColor=none;" parent="1" vertex="1">
          <mxGeometry x="514" y="314" width="40" height="36" as="geometry" />
        </mxCell>
        <mxCell id="ondcEIx-Vq4pANqkUfm2-300" value="" style="rounded=1;whiteSpace=wrap;html=1;strokeWidth=1;sketch=1;curveFitting=1;jiggle=2;fontFamily=Courier New;labelBackgroundColor=none;fillColor=#F8CECC;strokeColor=#26292E;shadow=0;gradientColor=#F8CECC;" parent="1" vertex="1">
          <mxGeometry x="502.5" y="579.5" width="516" height="47" as="geometry" />
        </mxCell>
        <mxCell id="ondcEIx-Vq4pANqkUfm2-360" value="" style="rounded=1;whiteSpace=wrap;html=1;strokeWidth=1;sketch=1;curveFitting=1;jiggle=2;fontFamily=Courier New;labelBackgroundColor=none;fillColor=#26292E;strokeColor=#26292E;shadow=0;gradientColor=none;" parent="1" vertex="1">
          <mxGeometry x="502.5" y="579" width="516" height="47" as="geometry" />
        </mxCell>
        <mxCell id="ondcEIx-Vq4pANqkUfm2-301" value="" style="rounded=1;whiteSpace=wrap;html=1;sketch=1;hachureGap=4;jiggle=2;curveFitting=1;fontFamily=Courier New;strokeColor=#26292E;strokeWidth=1;labelBackgroundColor=none;fillColor=#F8CECC;shadow=0;gradientColor=#F8CECC;" parent="1" vertex="1">
          <mxGeometry x="502.5" y="579.5" width="48" height="47" as="geometry" />
        </mxCell>
        <mxCell id="ondcEIx-Vq4pANqkUfm2-302" value="A" style="rounded=1;whiteSpace=wrap;html=1;fontSize=46;sketch=1;curveFitting=1;jiggle=2;fontFamily=architects daughter;strokeWidth=1;labelBackgroundColor=none;fillColor=#F8CECC;strokeColor=#26292E;shadow=0;gradientColor=#F8CECC;" parent="1" vertex="1">
          <mxGeometry x="507.5" y="584.5" width="40" height="36" as="geometry" />
        </mxCell>
        <mxCell id="ondcEIx-Vq4pANqkUfm2-361" value="" style="rounded=1;whiteSpace=wrap;html=1;strokeWidth=1;sketch=1;curveFitting=1;jiggle=2;fontFamily=Courier New;labelBackgroundColor=none;fillColor=#F8CECC;strokeColor=#26292E;shadow=0;gradientColor=#F8CECC;" parent="1" vertex="1">
          <mxGeometry x="501" y="639.5" width="516" height="47" as="geometry" />
        </mxCell>
        <mxCell id="ondcEIx-Vq4pANqkUfm2-362" value="" style="rounded=1;whiteSpace=wrap;html=1;strokeWidth=1;sketch=1;curveFitting=1;jiggle=2;fontFamily=Courier New;labelBackgroundColor=none;fillColor=#26292E;strokeColor=#26292E;shadow=0;gradientColor=none;" parent="1" vertex="1">
          <mxGeometry x="501" y="639" width="516" height="47" as="geometry" />
        </mxCell>
        <mxCell id="ondcEIx-Vq4pANqkUfm2-363" value="" style="rounded=1;whiteSpace=wrap;html=1;sketch=1;hachureGap=4;jiggle=2;curveFitting=1;fontFamily=Courier New;strokeColor=#26292E;strokeWidth=1;labelBackgroundColor=none;fillColor=#F8CECC;shadow=0;gradientColor=#F8CECC;" parent="1" vertex="1">
          <mxGeometry x="501" y="639.5" width="48" height="47" as="geometry" />
        </mxCell>
        <mxCell id="ondcEIx-Vq4pANqkUfm2-364" value="B" style="rounded=1;whiteSpace=wrap;html=1;fontSize=46;sketch=1;curveFitting=1;jiggle=2;fontFamily=architects daughter;strokeWidth=1;labelBackgroundColor=none;fillColor=#F8CECC;strokeColor=#26292E;shadow=0;gradientColor=#F8CECC;" parent="1" vertex="1">
          <mxGeometry x="506" y="644.5" width="40" height="36" as="geometry" />
        </mxCell>
        <mxCell id="ondcEIx-Vq4pANqkUfm2-365" value="" style="rounded=1;whiteSpace=wrap;html=1;strokeWidth=1;sketch=1;curveFitting=1;jiggle=2;fontFamily=Courier New;labelBackgroundColor=none;fillColor=#F8CECC;strokeColor=#26292E;shadow=0;gradientColor=#F8CECC;" parent="1" vertex="1">
          <mxGeometry x="501" y="699.5" width="516" height="47" as="geometry" />
        </mxCell>
        <mxCell id="ondcEIx-Vq4pANqkUfm2-366" value="" style="rounded=1;whiteSpace=wrap;html=1;strokeWidth=1;sketch=1;curveFitting=1;jiggle=2;fontFamily=Courier New;labelBackgroundColor=none;fillColor=#26292E;strokeColor=#26292E;shadow=0;gradientColor=none;" parent="1" vertex="1">
          <mxGeometry x="501" y="699" width="516" height="47" as="geometry" />
        </mxCell>
        <mxCell id="ondcEIx-Vq4pANqkUfm2-367" value="" style="rounded=1;whiteSpace=wrap;html=1;sketch=1;hachureGap=4;jiggle=2;curveFitting=1;fontFamily=Courier New;strokeColor=#26292E;strokeWidth=1;labelBackgroundColor=none;fillColor=#F8CECC;shadow=0;gradientColor=#F8CECC;" parent="1" vertex="1">
          <mxGeometry x="501" y="699.5" width="48" height="47" as="geometry" />
        </mxCell>
        <mxCell id="ondcEIx-Vq4pANqkUfm2-368" value="C" style="rounded=1;whiteSpace=wrap;html=1;fontSize=46;sketch=1;curveFitting=1;jiggle=2;fontFamily=architects daughter;strokeWidth=1;labelBackgroundColor=none;fillColor=#F8CECC;strokeColor=#26292E;shadow=0;gradientColor=#F8CECC;" parent="1" vertex="1">
          <mxGeometry x="506" y="704.5" width="40" height="36" as="geometry" />
        </mxCell>
        <mxCell id="ondcEIx-Vq4pANqkUfm2-369" value="" style="rounded=1;whiteSpace=wrap;html=1;strokeWidth=1;sketch=1;curveFitting=1;jiggle=2;fontFamily=Courier New;labelBackgroundColor=none;fillColor=#F8CECC;strokeColor=#26292E;shadow=0;gradientColor=#F8CECC;" parent="1" vertex="1">
          <mxGeometry x="501" y="762" width="516" height="47" as="geometry" />
        </mxCell>
        <mxCell id="ondcEIx-Vq4pANqkUfm2-370" value="" style="rounded=1;whiteSpace=wrap;html=1;strokeWidth=1;sketch=1;curveFitting=1;jiggle=2;fontFamily=Courier New;labelBackgroundColor=none;fillColor=#26292E;strokeColor=#26292E;shadow=0;gradientColor=none;" parent="1" vertex="1">
          <mxGeometry x="501" y="761.5" width="516" height="47" as="geometry" />
        </mxCell>
        <mxCell id="ondcEIx-Vq4pANqkUfm2-371" value="" style="rounded=1;whiteSpace=wrap;html=1;sketch=1;hachureGap=4;jiggle=2;curveFitting=1;fontFamily=Courier New;strokeColor=#26292E;strokeWidth=1;labelBackgroundColor=none;fillColor=#F8CECC;shadow=0;gradientColor=#F8CECC;" parent="1" vertex="1">
          <mxGeometry x="501" y="762" width="48" height="47" as="geometry" />
        </mxCell>
        <mxCell id="ondcEIx-Vq4pANqkUfm2-372" value="D" style="rounded=1;whiteSpace=wrap;html=1;fontSize=46;sketch=1;curveFitting=1;jiggle=2;fontFamily=architects daughter;strokeWidth=1;labelBackgroundColor=none;fillColor=#F8CECC;strokeColor=#26292E;shadow=0;gradientColor=#F8CECC;" parent="1" vertex="1">
          <mxGeometry x="506" y="767" width="40" height="36" as="geometry" />
        </mxCell>
        <mxCell id="ondcEIx-Vq4pANqkUfm2-374" value="" style="rounded=1;whiteSpace=wrap;html=1;sketch=1;hachureGap=4;jiggle=2;curveFitting=1;fontFamily=Architects Daughter;fontSource=https%3A%2F%2Ffonts.googleapis.com%2Fcss%3Ffamily%3DArchitects%2BDaughter;fontSize=31;strokeWidth=2;fillColor=#BAC8D3;gradientColor=#BAC8D3;strokeColor=#23445D;fontStyle=1" parent="1" vertex="1">
          <mxGeometry x="376" y="-382" width="80" height="34.5" as="geometry" />
        </mxCell>
        <mxCell id="a42rJ0YbthOBCnJQe4us-9" value="" style="rounded=0;whiteSpace=wrap;html=1;sketch=1;hachureGap=4;jiggle=2;curveFitting=1;strokeColor=#D79B00;fontFamily=Architects Daughter;fontSource=https%3A%2F%2Ffonts.googleapis.com%2Fcss%3Ffamily%3DArchitects%2BDaughter;fillColor=#ffe6cc;fontSize=33;fontStyle=0;gradientColor=#FFE6CC;strokeWidth=2;shadow=0;" vertex="1" parent="1">
          <mxGeometry x="752" y="-241.5" width="25" height="25" as="geometry" />
        </mxCell>
        <mxCell id="a42rJ0YbthOBCnJQe4us-10" value="-" style="rounded=0;whiteSpace=wrap;html=1;sketch=1;hachureGap=4;jiggle=2;curveFitting=1;strokeColor=#d79b00;fontFamily=Architects Daughter;fontSource=https%3A%2F%2Ffonts.googleapis.com%2Fcss%3Ffamily%3DArchitects%2BDaughter;fillColor=#ffe6cc;fontSize=25;fontStyle=0;gradientColor=#FFE6CC;shadow=1;" vertex="1" parent="1">
          <mxGeometry x="756.75" y="-236.75" width="15.5" height="15.5" as="geometry" />
        </mxCell>
        <mxCell id="a42rJ0YbthOBCnJQe4us-11" value="" style="rounded=0;whiteSpace=wrap;html=1;sketch=1;hachureGap=4;jiggle=2;curveFitting=1;strokeColor=#b85450;fontFamily=Architects Daughter;fontSource=https%3A%2F%2Ffonts.googleapis.com%2Fcss%3Ffamily%3DArchitects%2BDaughter;fillColor=#f8cecc;fontSize=19;fontStyle=0;gradientColor=#F8CECC;shadow=0;strokeWidth=2;" vertex="1" parent="1">
          <mxGeometry x="703" y="-370" width="25" height="25" as="geometry" />
        </mxCell>
        <mxCell id="a42rJ0YbthOBCnJQe4us-12" value="X" style="rounded=0;whiteSpace=wrap;html=1;sketch=1;hachureGap=4;jiggle=2;curveFitting=1;strokeColor=#b85450;fontFamily=Architects Daughter;fontSource=https%3A%2F%2Ffonts.googleapis.com%2Fcss%3Ffamily%3DArchitects%2BDaughter;fillColor=#f8cecc;fontSize=19;fontStyle=1;gradientColor=#F8CECC;shadow=0;strokeWidth=2;" vertex="1" parent="1">
          <mxGeometry x="705.5" y="-366.5" width="21" height="20" as="geometry" />
        </mxCell>
        <mxCell id="a42rJ0YbthOBCnJQe4us-13" value="" style="rounded=0;whiteSpace=wrap;html=1;sketch=1;hachureGap=4;jiggle=2;curveFitting=1;strokeColor=#82b366;fontFamily=Architects Daughter;fontSource=https%3A%2F%2Ffonts.googleapis.com%2Fcss%3Ffamily%3DArchitects%2BDaughter;fillColor=#d5e8d4;fontSize=33;fontStyle=0;gradientColor=#D5E8D4;shadow=0;strokeWidth=2;" vertex="1" parent="1">
          <mxGeometry x="650" y="-375" width="25" height="25" as="geometry" />
        </mxCell>
        <mxCell id="a42rJ0YbthOBCnJQe4us-14" value="" style="rounded=0;whiteSpace=wrap;html=1;sketch=1;hachureGap=4;jiggle=2;curveFitting=1;strokeColor=#82B366;fontFamily=Architects Daughter;fontSource=https%3A%2F%2Ffonts.googleapis.com%2Fcss%3Ffamily%3DArchitects%2BDaughter;fillColor=#d5e8d4;fontSize=33;fontStyle=0;gradientColor=#D5E8D4;shadow=0;strokeWidth=2;" vertex="1" parent="1">
          <mxGeometry x="653" y="-372.5" width="20" height="21" as="geometry" />
        </mxCell>
        <mxCell id="a42rJ0YbthOBCnJQe4us-15" value="" style="endArrow=classic;startArrow=classic;html=1;rounded=0;sketch=1;hachureGap=4;jiggle=2;curveFitting=1;strokeColor=#26292E;fontFamily=Architects Daughter;fontSource=https%3A%2F%2Ffonts.googleapis.com%2Fcss%3Ffamily%3DArchitects%2BDaughter;fontColor=#143642;fillColor=#d5e8d4;exitX=0;exitY=1;exitDx=0;exitDy=0;entryX=1;entryY=0;entryDx=0;entryDy=0;strokeWidth=2;endSize=2;startSize=2;endFill=1;shadow=0;" edge="1" source="a42rJ0YbthOBCnJQe4us-14" target="a42rJ0YbthOBCnJQe4us-14" parent="1">
          <mxGeometry width="50" height="50" relative="1" as="geometry">
            <mxPoint x="673" y="-218.63" as="sourcePoint" />
            <mxPoint x="654" y="-238.63" as="targetPoint" />
          </mxGeometry>
        </mxCell>
        <mxCell id="a42rJ0YbthOBCnJQe4us-16" value="" style="endArrow=classic;startArrow=classic;html=1;rounded=0;sketch=1;hachureGap=4;jiggle=2;curveFitting=1;strokeColor=#26292E;fontFamily=Architects Daughter;fontSource=https%3A%2F%2Ffonts.googleapis.com%2Fcss%3Ffamily%3DArchitects%2BDaughter;fontColor=#143642;fillColor=#d5e8d4;exitX=0.951;exitY=0.96;exitDx=0;exitDy=0;exitPerimeter=0;entryX=0;entryY=0;entryDx=0;entryDy=0;strokeWidth=2;endSize=2;startSize=2;endFill=1;shadow=0;" edge="1" source="a42rJ0YbthOBCnJQe4us-14" target="a42rJ0YbthOBCnJQe4us-14" parent="1">
          <mxGeometry width="50" height="50" relative="1" as="geometry">
            <mxPoint x="645.1428571428572" y="-213.63" as="sourcePoint" />
            <mxPoint x="638" y="-238.63" as="targetPoint" />
          </mxGeometry>
        </mxCell>
        <mxCell id="a42rJ0YbthOBCnJQe4us-18" value="" style="endArrow=none;html=1;rounded=0;sketch=1;hachureGap=4;jiggle=2;curveFitting=1;fontFamily=Architects Daughter;fontSource=https%3A%2F%2Ffonts.googleapis.com%2Fcss%3Ffamily%3DArchitects%2BDaughter;strokeColor=#D79B00;entryX=1;entryY=1;entryDx=0;entryDy=0;shadow=1;" edge="1" parent="1" target="a42rJ0YbthOBCnJQe4us-10">
          <mxGeometry width="50" height="50" relative="1" as="geometry">
            <mxPoint x="777" y="-216.13" as="sourcePoint" />
            <mxPoint x="827" y="-266.13" as="targetPoint" />
          </mxGeometry>
        </mxCell>
        <mxCell id="a42rJ0YbthOBCnJQe4us-19" value="" style="endArrow=none;html=1;rounded=0;sketch=1;hachureGap=4;jiggle=2;curveFitting=1;fontFamily=Architects Daughter;fontSource=https%3A%2F%2Ffonts.googleapis.com%2Fcss%3Ffamily%3DArchitects%2BDaughter;strokeColor=#D79B00;entryX=1;entryY=1;entryDx=0;entryDy=0;exitX=0;exitY=0;exitDx=0;exitDy=0;shadow=1;" edge="1" parent="1" source="a42rJ0YbthOBCnJQe4us-10">
          <mxGeometry width="50" height="50" relative="1" as="geometry">
            <mxPoint x="756" y="-238" as="sourcePoint" />
            <mxPoint x="752" y="-241.37" as="targetPoint" />
          </mxGeometry>
        </mxCell>
        <mxCell id="a42rJ0YbthOBCnJQe4us-20" value="" style="endArrow=none;html=1;rounded=0;sketch=1;hachureGap=4;jiggle=2;curveFitting=1;fontFamily=Architects Daughter;fontSource=https%3A%2F%2Ffonts.googleapis.com%2Fcss%3Ffamily%3DArchitects%2BDaughter;strokeColor=#D79B00;entryX=1;entryY=1;entryDx=0;entryDy=0;exitX=1;exitY=0;exitDx=0;exitDy=0;shadow=1;" edge="1" parent="1" source="a42rJ0YbthOBCnJQe4us-10">
          <mxGeometry width="50" height="50" relative="1" as="geometry">
            <mxPoint x="781" y="-238" as="sourcePoint" />
            <mxPoint x="777" y="-241.37" as="targetPoint" />
          </mxGeometry>
        </mxCell>
        <mxCell id="a42rJ0YbthOBCnJQe4us-21" value="" style="endArrow=none;html=1;rounded=0;sketch=1;hachureGap=4;jiggle=2;curveFitting=1;fontFamily=Architects Daughter;fontSource=https%3A%2F%2Ffonts.googleapis.com%2Fcss%3Ffamily%3DArchitects%2BDaughter;strokeColor=#D79B00;exitX=0;exitY=1;exitDx=0;exitDy=0;entryX=0.044;entryY=0.979;entryDx=0;entryDy=0;entryPerimeter=0;shadow=1;" edge="1" parent="1" source="a42rJ0YbthOBCnJQe4us-9" target="a42rJ0YbthOBCnJQe4us-10">
          <mxGeometry width="50" height="50" relative="1" as="geometry">
            <mxPoint x="752" y="-216.5" as="sourcePoint" />
            <mxPoint x="756" y="-220.5" as="targetPoint" />
          </mxGeometry>
        </mxCell>
        <mxCell id="a42rJ0YbthOBCnJQe4us-22" value="" style="rounded=0;whiteSpace=wrap;html=1;sketch=1;hachureGap=4;jiggle=2;curveFitting=1;strokeColor=#D79B00;fontFamily=Architects Daughter;fontSource=https%3A%2F%2Ffonts.googleapis.com%2Fcss%3Ffamily%3DArchitects%2BDaughter;fillColor=#ffe6cc;fontSize=33;fontStyle=0;gradientColor=#FFE6CC;strokeWidth=2;shadow=0;" vertex="1" parent="1">
          <mxGeometry x="758" y="-368" width="25" height="25" as="geometry" />
        </mxCell>
        <mxCell id="a42rJ0YbthOBCnJQe4us-23" value="-" style="rounded=0;whiteSpace=wrap;html=1;sketch=1;hachureGap=4;jiggle=2;curveFitting=1;strokeColor=#d79b00;fontFamily=Architects Daughter;fontSource=https%3A%2F%2Ffonts.googleapis.com%2Fcss%3Ffamily%3DArchitects%2BDaughter;fillColor=#ffe6cc;fontSize=33;fontStyle=1;gradientColor=#FFE6CC;shadow=0;strokeWidth=2;" vertex="1" parent="1">
          <mxGeometry x="760" y="-365.62" width="21" height="20" as="geometry" />
        </mxCell>
        <mxCell id="a42rJ0YbthOBCnJQe4us-24" value="" style="endArrow=none;html=1;rounded=0;sketch=1;hachureGap=4;jiggle=2;curveFitting=1;fontFamily=Architects Daughter;fontSource=https%3A%2F%2Ffonts.googleapis.com%2Fcss%3Ffamily%3DArchitects%2BDaughter;strokeColor=#D79B00;entryX=1;entryY=1;entryDx=0;entryDy=0;shadow=0;strokeWidth=2;" edge="1" target="a42rJ0YbthOBCnJQe4us-23" parent="1">
          <mxGeometry width="50" height="50" relative="1" as="geometry">
            <mxPoint x="783" y="-342.63" as="sourcePoint" />
            <mxPoint x="833" y="-392.63" as="targetPoint" />
          </mxGeometry>
        </mxCell>
        <mxCell id="a42rJ0YbthOBCnJQe4us-25" value="" style="endArrow=none;html=1;rounded=0;sketch=1;hachureGap=4;jiggle=2;curveFitting=1;fontFamily=Architects Daughter;fontSource=https%3A%2F%2Ffonts.googleapis.com%2Fcss%3Ffamily%3DArchitects%2BDaughter;strokeColor=#D79B00;entryX=1;entryY=1;entryDx=0;entryDy=0;exitX=-0.049;exitY=-0.033;exitDx=0;exitDy=0;shadow=0;exitPerimeter=0;strokeWidth=2;" edge="1" source="a42rJ0YbthOBCnJQe4us-23" parent="1">
          <mxGeometry width="50" height="50" relative="1" as="geometry">
            <mxPoint x="762" y="-364.5" as="sourcePoint" />
            <mxPoint x="758" y="-367.87" as="targetPoint" />
          </mxGeometry>
        </mxCell>
        <mxCell id="a42rJ0YbthOBCnJQe4us-26" value="" style="endArrow=none;html=1;rounded=0;sketch=1;hachureGap=4;jiggle=2;curveFitting=1;fontFamily=Architects Daughter;fontSource=https%3A%2F%2Ffonts.googleapis.com%2Fcss%3Ffamily%3DArchitects%2BDaughter;strokeColor=#D79B00;entryX=1;entryY=1;entryDx=0;entryDy=0;exitX=1;exitY=0;exitDx=0;exitDy=0;shadow=0;strokeWidth=2;" edge="1" source="a42rJ0YbthOBCnJQe4us-23" parent="1">
          <mxGeometry width="50" height="50" relative="1" as="geometry">
            <mxPoint x="787" y="-364.5" as="sourcePoint" />
            <mxPoint x="783" y="-367.87" as="targetPoint" />
          </mxGeometry>
        </mxCell>
        <mxCell id="a42rJ0YbthOBCnJQe4us-27" value="" style="endArrow=none;html=1;rounded=0;sketch=1;hachureGap=4;jiggle=2;curveFitting=1;fontFamily=Architects Daughter;fontSource=https%3A%2F%2Ffonts.googleapis.com%2Fcss%3Ffamily%3DArchitects%2BDaughter;strokeColor=#D79B00;exitX=0;exitY=1;exitDx=0;exitDy=0;entryX=0.044;entryY=0.979;entryDx=0;entryDy=0;entryPerimeter=0;shadow=0;strokeWidth=2;" edge="1" source="a42rJ0YbthOBCnJQe4us-22" target="a42rJ0YbthOBCnJQe4us-23" parent="1">
          <mxGeometry width="50" height="50" relative="1" as="geometry">
            <mxPoint x="758" y="-343" as="sourcePoint" />
            <mxPoint x="762" y="-347" as="targetPoint" />
          </mxGeometry>
        </mxCell>
        <mxCell id="a42rJ0YbthOBCnJQe4us-28" value="" style="endArrow=none;html=1;rounded=0;sketch=1;hachureGap=4;jiggle=2;curveFitting=1;fontFamily=Architects Daughter;fontSource=https%3A%2F%2Ffonts.googleapis.com%2Fcss%3Ffamily%3DArchitects%2BDaughter;strokeColor=#B85450;entryX=1;entryY=1;entryDx=0;entryDy=0;shadow=0;exitX=1;exitY=1;exitDx=0;exitDy=0;strokeWidth=2;" edge="1" parent="1" source="a42rJ0YbthOBCnJQe4us-11" target="a42rJ0YbthOBCnJQe4us-12">
          <mxGeometry width="50" height="50" relative="1" as="geometry">
            <mxPoint x="727.5" y="-344.5" as="sourcePoint" />
            <mxPoint x="736.5" y="-340.5" as="targetPoint" />
          </mxGeometry>
        </mxCell>
        <mxCell id="a42rJ0YbthOBCnJQe4us-29" value="" style="endArrow=none;html=1;rounded=0;sketch=1;hachureGap=4;jiggle=2;curveFitting=1;fontFamily=Architects Daughter;fontSource=https%3A%2F%2Ffonts.googleapis.com%2Fcss%3Ffamily%3DArchitects%2BDaughter;strokeColor=#B85450;entryX=1;entryY=1;entryDx=0;entryDy=0;shadow=0;exitX=1;exitY=1;exitDx=0;exitDy=0;strokeWidth=2;" edge="1" parent="1">
          <mxGeometry width="50" height="50" relative="1" as="geometry">
            <mxPoint x="707" y="-366" as="sourcePoint" />
            <mxPoint x="703" y="-370" as="targetPoint" />
          </mxGeometry>
        </mxCell>
        <mxCell id="a42rJ0YbthOBCnJQe4us-30" value="" style="endArrow=none;html=1;rounded=0;sketch=1;hachureGap=4;jiggle=2;curveFitting=1;fontFamily=Architects Daughter;fontSource=https%3A%2F%2Ffonts.googleapis.com%2Fcss%3Ffamily%3DArchitects%2BDaughter;strokeColor=#B85450;entryX=1;entryY=1;entryDx=0;entryDy=0;shadow=0;exitX=0;exitY=1;exitDx=0;exitDy=0;strokeWidth=2;" edge="1" parent="1" source="a42rJ0YbthOBCnJQe4us-11">
          <mxGeometry width="50" height="50" relative="1" as="geometry">
            <mxPoint x="710.25" y="-345.5" as="sourcePoint" />
            <mxPoint x="706.25" y="-349.5" as="targetPoint" />
          </mxGeometry>
        </mxCell>
        <mxCell id="a42rJ0YbthOBCnJQe4us-31" value="" style="endArrow=none;html=1;rounded=0;sketch=1;hachureGap=4;jiggle=2;curveFitting=1;fontFamily=Architects Daughter;fontSource=https%3A%2F%2Ffonts.googleapis.com%2Fcss%3Ffamily%3DArchitects%2BDaughter;strokeColor=#B85450;entryX=1;entryY=1;entryDx=0;entryDy=0;shadow=0;exitX=0.956;exitY=0.026;exitDx=0;exitDy=0;exitPerimeter=0;strokeWidth=2;" edge="1" parent="1" source="a42rJ0YbthOBCnJQe4us-12">
          <mxGeometry width="50" height="50" relative="1" as="geometry">
            <mxPoint x="725.25" y="-365" as="sourcePoint" />
            <mxPoint x="728" y="-370" as="targetPoint" />
          </mxGeometry>
        </mxCell>
        <mxCell id="a42rJ0YbthOBCnJQe4us-32" value="" style="rounded=0;whiteSpace=wrap;html=1;sketch=1;hachureGap=4;jiggle=2;curveFitting=1;strokeColor=#b85450;fontFamily=Architects Daughter;fontSource=https%3A%2F%2Ffonts.googleapis.com%2Fcss%3Ffamily%3DArchitects%2BDaughter;fillColor=#f8cecc;fontSize=19;fontStyle=0;gradientColor=#F8CECC;shadow=0;strokeWidth=2;" vertex="1" parent="1">
          <mxGeometry x="700" y="-251" width="25" height="25" as="geometry" />
        </mxCell>
        <mxCell id="a42rJ0YbthOBCnJQe4us-33" value="X" style="rounded=0;whiteSpace=wrap;html=1;sketch=1;hachureGap=4;jiggle=2;curveFitting=1;strokeColor=#b85450;fontFamily=Architects Daughter;fontSource=https%3A%2F%2Ffonts.googleapis.com%2Fcss%3Ffamily%3DArchitects%2BDaughter;fillColor=#f8cecc;fontSize=14;fontStyle=0;gradientColor=#F8CECC;shadow=1;" vertex="1" parent="1">
          <mxGeometry x="704" y="-247" width="16" height="16" as="geometry" />
        </mxCell>
        <mxCell id="a42rJ0YbthOBCnJQe4us-34" value="" style="endArrow=none;html=1;rounded=0;sketch=1;hachureGap=4;jiggle=2;curveFitting=1;fontFamily=Architects Daughter;fontSource=https%3A%2F%2Ffonts.googleapis.com%2Fcss%3Ffamily%3DArchitects%2BDaughter;strokeColor=#B85450;entryX=1;entryY=1;entryDx=0;entryDy=0;shadow=1;exitX=1;exitY=1;exitDx=0;exitDy=0;" edge="1" source="a42rJ0YbthOBCnJQe4us-32" target="a42rJ0YbthOBCnJQe4us-33" parent="1">
          <mxGeometry width="50" height="50" relative="1" as="geometry">
            <mxPoint x="724.5" y="-225.5" as="sourcePoint" />
            <mxPoint x="733.5" y="-221.5" as="targetPoint" />
          </mxGeometry>
        </mxCell>
        <mxCell id="a42rJ0YbthOBCnJQe4us-35" value="" style="endArrow=none;html=1;rounded=0;sketch=1;hachureGap=4;jiggle=2;curveFitting=1;fontFamily=Architects Daughter;fontSource=https%3A%2F%2Ffonts.googleapis.com%2Fcss%3Ffamily%3DArchitects%2BDaughter;strokeColor=#B85450;entryX=1;entryY=1;entryDx=0;entryDy=0;shadow=1;exitX=0;exitY=0;exitDx=0;exitDy=0;" edge="1" parent="1" source="a42rJ0YbthOBCnJQe4us-33">
          <mxGeometry width="50" height="50" relative="1" as="geometry">
            <mxPoint x="704" y="-247" as="sourcePoint" />
            <mxPoint x="700" y="-251" as="targetPoint" />
          </mxGeometry>
        </mxCell>
        <mxCell id="a42rJ0YbthOBCnJQe4us-36" value="" style="endArrow=none;html=1;rounded=0;sketch=1;hachureGap=4;jiggle=2;curveFitting=1;fontFamily=Architects Daughter;fontSource=https%3A%2F%2Ffonts.googleapis.com%2Fcss%3Ffamily%3DArchitects%2BDaughter;strokeColor=#B85450;entryX=0;entryY=1;entryDx=0;entryDy=0;shadow=1;exitX=0;exitY=1;exitDx=0;exitDy=0;" edge="1" source="a42rJ0YbthOBCnJQe4us-32" parent="1" target="a42rJ0YbthOBCnJQe4us-33">
          <mxGeometry width="50" height="50" relative="1" as="geometry">
            <mxPoint x="707.25" y="-226.5" as="sourcePoint" />
            <mxPoint x="703.25" y="-230.5" as="targetPoint" />
          </mxGeometry>
        </mxCell>
        <mxCell id="a42rJ0YbthOBCnJQe4us-37" value="" style="endArrow=none;html=1;rounded=0;sketch=1;hachureGap=4;jiggle=2;curveFitting=1;fontFamily=Architects Daughter;fontSource=https%3A%2F%2Ffonts.googleapis.com%2Fcss%3Ffamily%3DArchitects%2BDaughter;strokeColor=#B85450;entryX=1;entryY=1;entryDx=0;entryDy=0;shadow=1;exitX=0.956;exitY=0.026;exitDx=0;exitDy=0;exitPerimeter=0;" edge="1" source="a42rJ0YbthOBCnJQe4us-33" parent="1">
          <mxGeometry width="50" height="50" relative="1" as="geometry">
            <mxPoint x="722.25" y="-246" as="sourcePoint" />
            <mxPoint x="725" y="-251" as="targetPoint" />
          </mxGeometry>
        </mxCell>
        <mxCell id="a42rJ0YbthOBCnJQe4us-38" value="" style="endArrow=none;html=1;rounded=0;sketch=1;hachureGap=4;jiggle=2;curveFitting=1;fontFamily=Architects Daughter;fontSource=https%3A%2F%2Ffonts.googleapis.com%2Fcss%3Ffamily%3DArchitects%2BDaughter;strokeColor=#82B366;entryX=1;entryY=1;entryDx=0;entryDy=0;shadow=0;exitX=0;exitY=0;exitDx=0;exitDy=0;strokeWidth=2;" edge="1" parent="1" source="a42rJ0YbthOBCnJQe4us-14">
          <mxGeometry width="50" height="50" relative="1" as="geometry">
            <mxPoint x="656" y="-370" as="sourcePoint" />
            <mxPoint x="651" y="-375" as="targetPoint" />
          </mxGeometry>
        </mxCell>
        <mxCell id="a42rJ0YbthOBCnJQe4us-39" value="" style="endArrow=none;html=1;rounded=0;sketch=1;hachureGap=4;jiggle=2;curveFitting=1;fontFamily=Architects Daughter;fontSource=https%3A%2F%2Ffonts.googleapis.com%2Fcss%3Ffamily%3DArchitects%2BDaughter;strokeColor=#82B366;entryX=1;entryY=1;entryDx=0;entryDy=0;shadow=0;exitX=0.166;exitY=0.896;exitDx=0;exitDy=0;exitPerimeter=0;strokeWidth=2;" edge="1" parent="1" source="a42rJ0YbthOBCnJQe4us-13">
          <mxGeometry width="50" height="50" relative="1" as="geometry">
            <mxPoint x="654" y="-346.5" as="sourcePoint" />
            <mxPoint x="651" y="-350" as="targetPoint" />
          </mxGeometry>
        </mxCell>
        <mxCell id="a42rJ0YbthOBCnJQe4us-40" value="" style="endArrow=none;html=1;rounded=0;sketch=1;hachureGap=4;jiggle=2;curveFitting=1;fontFamily=Architects Daughter;fontSource=https%3A%2F%2Ffonts.googleapis.com%2Fcss%3Ffamily%3DArchitects%2BDaughter;strokeColor=#82B366;shadow=0;exitX=0.166;exitY=0.896;exitDx=0;exitDy=0;exitPerimeter=0;entryX=1;entryY=1;entryDx=0;entryDy=0;strokeWidth=2;" edge="1" parent="1" target="a42rJ0YbthOBCnJQe4us-13">
          <mxGeometry width="50" height="50" relative="1" as="geometry">
            <mxPoint x="672" y="-352.5" as="sourcePoint" />
            <mxPoint x="683" y="-344.5" as="targetPoint" />
          </mxGeometry>
        </mxCell>
        <mxCell id="a42rJ0YbthOBCnJQe4us-41" value="" style="endArrow=none;html=1;rounded=0;sketch=1;hachureGap=4;jiggle=2;curveFitting=1;fontFamily=Architects Daughter;fontSource=https%3A%2F%2Ffonts.googleapis.com%2Fcss%3Ffamily%3DArchitects%2BDaughter;strokeColor=#82B366;shadow=0;exitX=0.166;exitY=0.896;exitDx=0;exitDy=0;exitPerimeter=0;entryX=1;entryY=0;entryDx=0;entryDy=0;strokeWidth=2;" edge="1" parent="1" target="a42rJ0YbthOBCnJQe4us-14">
          <mxGeometry width="50" height="50" relative="1" as="geometry">
            <mxPoint x="675" y="-374.5" as="sourcePoint" />
            <mxPoint x="678" y="-371.5" as="targetPoint" />
          </mxGeometry>
        </mxCell>
        <mxCell id="a42rJ0YbthOBCnJQe4us-42" value="" style="rounded=0;whiteSpace=wrap;html=1;sketch=1;hachureGap=4;jiggle=2;curveFitting=1;strokeColor=#82b366;fontFamily=Architects Daughter;fontSource=https%3A%2F%2Ffonts.googleapis.com%2Fcss%3Ffamily%3DArchitects%2BDaughter;fillColor=#d5e8d4;fontSize=33;fontStyle=0;gradientColor=#D5E8D4;shadow=0;strokeWidth=2;" vertex="1" parent="1">
          <mxGeometry x="645" y="-252" width="25" height="25" as="geometry" />
        </mxCell>
        <mxCell id="a42rJ0YbthOBCnJQe4us-43" value="" style="rounded=0;whiteSpace=wrap;html=1;sketch=1;hachureGap=4;jiggle=2;curveFitting=1;strokeColor=#82B366;fontFamily=Architects Daughter;fontSource=https%3A%2F%2Ffonts.googleapis.com%2Fcss%3Ffamily%3DArchitects%2BDaughter;fillColor=#d5e8d4;fontSize=33;fontStyle=0;gradientColor=#D5E8D4;shadow=1;" vertex="1" parent="1">
          <mxGeometry x="651" y="-247" width="13" height="15" as="geometry" />
        </mxCell>
        <mxCell id="a42rJ0YbthOBCnJQe4us-44" value="" style="endArrow=classic;startArrow=classic;html=1;rounded=0;sketch=1;hachureGap=4;jiggle=2;curveFitting=1;strokeColor=#26292E;fontFamily=Architects Daughter;fontSource=https%3A%2F%2Ffonts.googleapis.com%2Fcss%3Ffamily%3DArchitects%2BDaughter;fontColor=#143642;fillColor=#d5e8d4;exitX=0;exitY=1;exitDx=0;exitDy=0;entryX=1;entryY=0;entryDx=0;entryDy=0;strokeWidth=1;endSize=3;startSize=3;endFill=1;shadow=1;" edge="1" source="a42rJ0YbthOBCnJQe4us-43" target="a42rJ0YbthOBCnJQe4us-43" parent="1">
          <mxGeometry width="50" height="50" relative="1" as="geometry">
            <mxPoint x="668" y="-95.63" as="sourcePoint" />
            <mxPoint x="649" y="-115.63" as="targetPoint" />
          </mxGeometry>
        </mxCell>
        <mxCell id="a42rJ0YbthOBCnJQe4us-45" value="" style="endArrow=classic;startArrow=classic;html=1;rounded=0;sketch=1;hachureGap=4;jiggle=2;curveFitting=1;strokeColor=#26292E;fontFamily=Architects Daughter;fontSource=https%3A%2F%2Ffonts.googleapis.com%2Fcss%3Ffamily%3DArchitects%2BDaughter;fontColor=#143642;fillColor=#d5e8d4;exitX=0.951;exitY=0.96;exitDx=0;exitDy=0;exitPerimeter=0;entryX=0;entryY=0;entryDx=0;entryDy=0;strokeWidth=1;endSize=3;startSize=3;endFill=1;shadow=1;" edge="1" source="a42rJ0YbthOBCnJQe4us-43" target="a42rJ0YbthOBCnJQe4us-43" parent="1">
          <mxGeometry width="50" height="50" relative="1" as="geometry">
            <mxPoint x="640.1428571428572" y="-90.63" as="sourcePoint" />
            <mxPoint x="633" y="-115.63" as="targetPoint" />
          </mxGeometry>
        </mxCell>
        <mxCell id="a42rJ0YbthOBCnJQe4us-46" value="" style="endArrow=none;html=1;rounded=0;sketch=1;hachureGap=4;jiggle=2;curveFitting=1;fontFamily=Architects Daughter;fontSource=https%3A%2F%2Ffonts.googleapis.com%2Fcss%3Ffamily%3DArchitects%2BDaughter;strokeColor=#82B366;entryX=1;entryY=1;entryDx=0;entryDy=0;shadow=1;exitX=0;exitY=0;exitDx=0;exitDy=0;" edge="1" source="a42rJ0YbthOBCnJQe4us-43" parent="1">
          <mxGeometry width="50" height="50" relative="1" as="geometry">
            <mxPoint x="651" y="-247" as="sourcePoint" />
            <mxPoint x="646" y="-252" as="targetPoint" />
          </mxGeometry>
        </mxCell>
        <mxCell id="a42rJ0YbthOBCnJQe4us-47" value="" style="endArrow=none;html=1;rounded=0;sketch=1;hachureGap=4;jiggle=2;curveFitting=1;fontFamily=Architects Daughter;fontSource=https%3A%2F%2Ffonts.googleapis.com%2Fcss%3Ffamily%3DArchitects%2BDaughter;strokeColor=#82B366;entryX=1;entryY=1;entryDx=0;entryDy=0;shadow=1;exitX=0;exitY=1;exitDx=0;exitDy=0;" edge="1" source="a42rJ0YbthOBCnJQe4us-43" parent="1">
          <mxGeometry width="50" height="50" relative="1" as="geometry">
            <mxPoint x="649" y="-223.5" as="sourcePoint" />
            <mxPoint x="646" y="-227" as="targetPoint" />
          </mxGeometry>
        </mxCell>
        <mxCell id="a42rJ0YbthOBCnJQe4us-48" value="" style="endArrow=none;html=1;rounded=0;sketch=1;hachureGap=4;jiggle=2;curveFitting=1;fontFamily=Architects Daughter;fontSource=https%3A%2F%2Ffonts.googleapis.com%2Fcss%3Ffamily%3DArchitects%2BDaughter;strokeColor=#82B366;shadow=1;exitX=1;exitY=1;exitDx=0;exitDy=0;entryX=1;entryY=1;entryDx=0;entryDy=0;" edge="1" target="a42rJ0YbthOBCnJQe4us-42" parent="1" source="a42rJ0YbthOBCnJQe4us-43">
          <mxGeometry width="50" height="50" relative="1" as="geometry">
            <mxPoint x="667" y="-229.5" as="sourcePoint" />
            <mxPoint x="678" y="-221.5" as="targetPoint" />
          </mxGeometry>
        </mxCell>
        <mxCell id="a42rJ0YbthOBCnJQe4us-49" value="" style="endArrow=none;html=1;rounded=0;sketch=1;hachureGap=4;jiggle=2;curveFitting=1;fontFamily=Architects Daughter;fontSource=https%3A%2F%2Ffonts.googleapis.com%2Fcss%3Ffamily%3DArchitects%2BDaughter;strokeColor=#82B366;shadow=1;exitX=0.166;exitY=0.896;exitDx=0;exitDy=0;exitPerimeter=0;entryX=1;entryY=0;entryDx=0;entryDy=0;" edge="1" target="a42rJ0YbthOBCnJQe4us-43" parent="1">
          <mxGeometry width="50" height="50" relative="1" as="geometry">
            <mxPoint x="670" y="-251.5" as="sourcePoint" />
            <mxPoint x="673" y="-248.5" as="targetPoint" />
          </mxGeometry>
        </mxCell>
        <mxCell id="a42rJ0YbthOBCnJQe4us-50" value="" style="triangle;whiteSpace=wrap;html=1;hachureGap=4;fontFamily=Courier New;rounded=1;labelBackgroundColor=none;rotation=0;sketch=1;curveFitting=1;jiggle=2;strokeWidth=2;fillColor=#BAC8D3;strokeColor=#23445d;gradientColor=#BAC8D3;shadow=0;" vertex="1" parent="1">
          <mxGeometry x="877" y="-246" width="37.5" height="35" as="geometry" />
        </mxCell>
        <mxCell id="a42rJ0YbthOBCnJQe4us-51" value="" style="triangle;whiteSpace=wrap;html=1;hachureGap=4;fontFamily=Courier New;rounded=1;labelBackgroundColor=none;rotation=-180;sketch=1;curveFitting=1;jiggle=2;strokeWidth=2;fillColor=#BAC8D3;strokeColor=#23445d;gradientColor=#BAC8D3;shadow=0;" vertex="1" parent="1">
          <mxGeometry x="805" y="-240" width="37.5" height="35" as="geometry" />
        </mxCell>
        <mxCell id="a42rJ0YbthOBCnJQe4us-52" value="" style="triangle;whiteSpace=wrap;html=1;hachureGap=4;fontFamily=Courier New;rounded=1;labelBackgroundColor=none;rotation=0;sketch=1;curveFitting=1;jiggle=2;strokeWidth=1;fillColor=#BAC8D3;strokeColor=#23445d;gradientColor=#BAC8D3;shadow=1;" vertex="1" parent="1">
          <mxGeometry x="880" y="-240" width="25" height="23" as="geometry" />
        </mxCell>
        <mxCell id="a42rJ0YbthOBCnJQe4us-54" value="" style="triangle;whiteSpace=wrap;html=1;hachureGap=4;fontFamily=Courier New;rounded=1;labelBackgroundColor=none;rotation=-180;strokeWidth=1;fillColor=#BAC8D9;strokeColor=#23445D;gradientColor=#BAC8D9;shadow=1;sketch=1;curveFitting=1;jiggle=2;" vertex="1" parent="1">
          <mxGeometry x="814" y="-234" width="25" height="24" as="geometry" />
        </mxCell>
        <mxCell id="a42rJ0YbthOBCnJQe4us-55" value="" style="endArrow=none;html=1;rounded=0;sketch=1;hachureGap=4;jiggle=2;curveFitting=1;fontFamily=Architects Daughter;fontSource=https%3A%2F%2Ffonts.googleapis.com%2Fcss%3Ffamily%3DArchitects%2BDaughter;strokeColor=#23445D;entryX=0.883;entryY=0.499;entryDx=0;entryDy=0;shadow=1;exitX=0.794;exitY=0.49;exitDx=0;exitDy=0;exitPerimeter=0;entryPerimeter=0;" edge="1" parent="1" source="a42rJ0YbthOBCnJQe4us-54" target="a42rJ0YbthOBCnJQe4us-51">
          <mxGeometry width="50" height="50" relative="1" as="geometry">
            <mxPoint x="802" y="-224.63" as="sourcePoint" />
            <mxPoint x="797" y="-230" as="targetPoint" />
          </mxGeometry>
        </mxCell>
        <mxCell id="a42rJ0YbthOBCnJQe4us-56" value="" style="endArrow=none;html=1;rounded=0;sketch=1;hachureGap=4;jiggle=2;curveFitting=1;fontFamily=Architects Daughter;fontSource=https%3A%2F%2Ffonts.googleapis.com%2Fcss%3Ffamily%3DArchitects%2BDaughter;strokeColor=#23445D;entryX=0.883;entryY=0.499;entryDx=0;entryDy=0;shadow=1;entryPerimeter=0;exitX=0.841;exitY=0.488;exitDx=0;exitDy=0;exitPerimeter=0;" edge="1" parent="1" source="a42rJ0YbthOBCnJQe4us-50">
          <mxGeometry width="50" height="50" relative="1" as="geometry">
            <mxPoint x="908" y="-229" as="sourcePoint" />
            <mxPoint x="901" y="-229" as="targetPoint" />
          </mxGeometry>
        </mxCell>
        <mxCell id="a42rJ0YbthOBCnJQe4us-57" value="" style="endArrow=none;html=1;rounded=0;sketch=1;hachureGap=4;jiggle=2;curveFitting=1;fontFamily=Architects Daughter;fontSource=https%3A%2F%2Ffonts.googleapis.com%2Fcss%3Ffamily%3DArchitects%2BDaughter;strokeColor=#23445D;entryX=0.08;entryY=0.864;entryDx=0;entryDy=0;shadow=1;exitX=0.066;exitY=0.858;exitDx=0;exitDy=0;exitPerimeter=0;entryPerimeter=0;" edge="1" parent="1" source="a42rJ0YbthOBCnJQe4us-54" target="a42rJ0YbthOBCnJQe4us-51">
          <mxGeometry width="50" height="50" relative="1" as="geometry">
            <mxPoint x="851" y="-237" as="sourcePoint" />
            <mxPoint x="841" y="-237" as="targetPoint" />
          </mxGeometry>
        </mxCell>
        <mxCell id="a42rJ0YbthOBCnJQe4us-58" value="" style="endArrow=none;html=1;rounded=0;sketch=1;hachureGap=4;jiggle=2;curveFitting=1;fontFamily=Architects Daughter;fontSource=https%3A%2F%2Ffonts.googleapis.com%2Fcss%3Ffamily%3DArchitects%2BDaughter;strokeColor=#23445D;entryX=0.115;entryY=0.167;entryDx=0;entryDy=0;shadow=1;exitX=0.156;exitY=0.063;exitDx=0;exitDy=0;exitPerimeter=0;entryPerimeter=0;" edge="1" parent="1" source="a42rJ0YbthOBCnJQe4us-51" target="a42rJ0YbthOBCnJQe4us-54">
          <mxGeometry width="50" height="50" relative="1" as="geometry">
            <mxPoint x="845" y="-203" as="sourcePoint" />
            <mxPoint x="848" y="-207" as="targetPoint" />
          </mxGeometry>
        </mxCell>
        <mxCell id="a42rJ0YbthOBCnJQe4us-59" value="" style="endArrow=none;html=1;rounded=0;sketch=1;hachureGap=4;jiggle=2;curveFitting=1;fontFamily=Architects Daughter;fontSource=https%3A%2F%2Ffonts.googleapis.com%2Fcss%3Ffamily%3DArchitects%2BDaughter;strokeColor=#23445D;entryX=-0.011;entryY=0.955;entryDx=0;entryDy=0;shadow=1;exitX=0.085;exitY=0.934;exitDx=0;exitDy=0;exitPerimeter=0;entryPerimeter=0;" edge="1" parent="1" source="a42rJ0YbthOBCnJQe4us-50" target="a42rJ0YbthOBCnJQe4us-52">
          <mxGeometry width="50" height="50" relative="1" as="geometry">
            <mxPoint x="882" y="-210" as="sourcePoint" />
            <mxPoint x="881" y="-218" as="targetPoint" />
          </mxGeometry>
        </mxCell>
        <mxCell id="a42rJ0YbthOBCnJQe4us-60" value="" style="endArrow=none;html=1;rounded=0;sketch=1;hachureGap=4;jiggle=2;curveFitting=1;fontFamily=Architects Daughter;fontSource=https%3A%2F%2Ffonts.googleapis.com%2Fcss%3Ffamily%3DArchitects%2BDaughter;strokeColor=#23445D;entryX=0.05;entryY=0.042;entryDx=0;entryDy=0;shadow=1;exitX=0.096;exitY=0.036;exitDx=0;exitDy=0;exitPerimeter=0;entryPerimeter=0;" edge="1" parent="1" source="a42rJ0YbthOBCnJQe4us-52" target="a42rJ0YbthOBCnJQe4us-50">
          <mxGeometry width="50" height="50" relative="1" as="geometry">
            <mxPoint x="874" y="-240" as="sourcePoint" />
            <mxPoint x="875" y="-245" as="targetPoint" />
          </mxGeometry>
        </mxCell>
        <mxCell id="a42rJ0YbthOBCnJQe4us-61" value="" style="triangle;whiteSpace=wrap;html=1;hachureGap=4;fontFamily=Courier New;rounded=1;labelBackgroundColor=none;rotation=0;sketch=1;curveFitting=1;jiggle=2;strokeWidth=2;fillColor=#BAC8D3;strokeColor=#23445d;gradientColor=#BAC8D3;shadow=0;" vertex="1" parent="1">
          <mxGeometry x="866" y="-379.5" width="37.5" height="35" as="geometry" />
        </mxCell>
        <mxCell id="a42rJ0YbthOBCnJQe4us-62" value="" style="triangle;whiteSpace=wrap;html=1;hachureGap=4;fontFamily=Courier New;rounded=1;labelBackgroundColor=none;rotation=-180;sketch=1;curveFitting=1;jiggle=2;strokeWidth=2;fillColor=#BAC8D3;strokeColor=#23445d;gradientColor=#BAC8D3;shadow=0;" vertex="1" parent="1">
          <mxGeometry x="798" y="-379" width="37.5" height="35" as="geometry" />
        </mxCell>
        <mxCell id="a42rJ0YbthOBCnJQe4us-63" value="" style="triangle;whiteSpace=wrap;html=1;hachureGap=4;fontFamily=Courier New;rounded=1;labelBackgroundColor=none;rotation=0;sketch=1;curveFitting=1;jiggle=2;strokeWidth=2;fillColor=#BAC8D3;strokeColor=#23445d;gradientColor=#BAC8D3;shadow=0;" vertex="1" parent="1">
          <mxGeometry x="868" y="-375.5" width="33" height="26" as="geometry" />
        </mxCell>
        <mxCell id="a42rJ0YbthOBCnJQe4us-64" value="" style="triangle;whiteSpace=wrap;html=1;hachureGap=4;fontFamily=Courier New;rounded=1;labelBackgroundColor=none;rotation=-180;sketch=1;curveFitting=1;jiggle=2;strokeWidth=2;fillColor=#BAC8D3;strokeColor=#23445D;gradientColor=#BAC8D3;shadow=0;" vertex="1" parent="1">
          <mxGeometry x="802" y="-375" width="31" height="28" as="geometry" />
        </mxCell>
        <mxCell id="a42rJ0YbthOBCnJQe4us-65" value="" style="endArrow=none;html=1;rounded=0;sketch=1;hachureGap=4;jiggle=2;curveFitting=1;fontFamily=Architects Daughter;fontSource=https%3A%2F%2Ffonts.googleapis.com%2Fcss%3Ffamily%3DArchitects%2BDaughter;strokeColor=#23445D;entryX=0.883;entryY=0.499;entryDx=0;entryDy=0;shadow=1;exitX=0.867;exitY=0.505;exitDx=0;exitDy=0;exitPerimeter=0;entryPerimeter=0;strokeWidth=2;" edge="1" source="a42rJ0YbthOBCnJQe4us-64" target="a42rJ0YbthOBCnJQe4us-62" parent="1">
          <mxGeometry width="50" height="50" relative="1" as="geometry">
            <mxPoint x="795" y="-363.63" as="sourcePoint" />
            <mxPoint x="790" y="-369" as="targetPoint" />
          </mxGeometry>
        </mxCell>
        <mxCell id="a42rJ0YbthOBCnJQe4us-66" value="" style="endArrow=none;html=1;rounded=0;sketch=1;hachureGap=4;jiggle=2;curveFitting=1;fontFamily=Architects Daughter;fontSource=https%3A%2F%2Ffonts.googleapis.com%2Fcss%3Ffamily%3DArchitects%2BDaughter;strokeColor=#23445D;entryX=0.85;entryY=0.512;entryDx=0;entryDy=0;shadow=1;entryPerimeter=0;exitX=0.893;exitY=0.484;exitDx=0;exitDy=0;exitPerimeter=0;strokeWidth=2;" edge="1" source="a42rJ0YbthOBCnJQe4us-61" parent="1" target="a42rJ0YbthOBCnJQe4us-63">
          <mxGeometry width="50" height="50" relative="1" as="geometry">
            <mxPoint x="897" y="-362.5" as="sourcePoint" />
            <mxPoint x="890" y="-362.5" as="targetPoint" />
          </mxGeometry>
        </mxCell>
        <mxCell id="a42rJ0YbthOBCnJQe4us-67" value="" style="endArrow=none;html=1;rounded=0;sketch=1;hachureGap=4;jiggle=2;curveFitting=1;fontFamily=Architects Daughter;fontSource=https%3A%2F%2Ffonts.googleapis.com%2Fcss%3Ffamily%3DArchitects%2BDaughter;strokeColor=#23445D;entryX=0.08;entryY=0.864;entryDx=0;entryDy=0;shadow=1;exitX=0.077;exitY=0.91;exitDx=0;exitDy=0;exitPerimeter=0;entryPerimeter=0;strokeWidth=2;" edge="1" source="a42rJ0YbthOBCnJQe4us-64" target="a42rJ0YbthOBCnJQe4us-62" parent="1">
          <mxGeometry width="50" height="50" relative="1" as="geometry">
            <mxPoint x="844" y="-376" as="sourcePoint" />
            <mxPoint x="834" y="-376" as="targetPoint" />
          </mxGeometry>
        </mxCell>
        <mxCell id="a42rJ0YbthOBCnJQe4us-68" value="" style="endArrow=none;html=1;rounded=0;sketch=1;hachureGap=4;jiggle=2;curveFitting=1;fontFamily=Architects Daughter;fontSource=https%3A%2F%2Ffonts.googleapis.com%2Fcss%3Ffamily%3DArchitects%2BDaughter;strokeColor=#23445D;entryX=0.093;entryY=0.125;entryDx=0;entryDy=0;shadow=1;exitX=0.156;exitY=0.063;exitDx=0;exitDy=0;exitPerimeter=0;entryPerimeter=0;strokeWidth=2;" edge="1" source="a42rJ0YbthOBCnJQe4us-62" target="a42rJ0YbthOBCnJQe4us-64" parent="1">
          <mxGeometry width="50" height="50" relative="1" as="geometry">
            <mxPoint x="838" y="-342" as="sourcePoint" />
            <mxPoint x="841" y="-346" as="targetPoint" />
          </mxGeometry>
        </mxCell>
        <mxCell id="a42rJ0YbthOBCnJQe4us-69" value="" style="endArrow=none;html=1;rounded=0;sketch=1;hachureGap=4;jiggle=2;curveFitting=1;fontFamily=Architects Daughter;fontSource=https%3A%2F%2Ffonts.googleapis.com%2Fcss%3Ffamily%3DArchitects%2BDaughter;strokeColor=#23445D;entryX=-0.011;entryY=0.955;entryDx=0;entryDy=0;shadow=1;exitX=0.085;exitY=0.934;exitDx=0;exitDy=0;exitPerimeter=0;entryPerimeter=0;strokeWidth=2;" edge="1" source="a42rJ0YbthOBCnJQe4us-61" target="a42rJ0YbthOBCnJQe4us-63" parent="1">
          <mxGeometry width="50" height="50" relative="1" as="geometry">
            <mxPoint x="871" y="-343.5" as="sourcePoint" />
            <mxPoint x="870" y="-351.5" as="targetPoint" />
          </mxGeometry>
        </mxCell>
        <mxCell id="a42rJ0YbthOBCnJQe4us-70" value="" style="endArrow=none;html=1;rounded=0;sketch=1;hachureGap=4;jiggle=2;curveFitting=1;fontFamily=Architects Daughter;fontSource=https%3A%2F%2Ffonts.googleapis.com%2Fcss%3Ffamily%3DArchitects%2BDaughter;strokeColor=#23445D;entryX=0.05;entryY=0.042;entryDx=0;entryDy=0;shadow=1;exitX=0.096;exitY=0.036;exitDx=0;exitDy=0;exitPerimeter=0;entryPerimeter=0;strokeWidth=2;" edge="1" source="a42rJ0YbthOBCnJQe4us-63" target="a42rJ0YbthOBCnJQe4us-61" parent="1">
          <mxGeometry width="50" height="50" relative="1" as="geometry">
            <mxPoint x="863" y="-373.5" as="sourcePoint" />
            <mxPoint x="864" y="-378.5" as="targetPoint" />
          </mxGeometry>
        </mxCell>
        <mxCell id="a42rJ0YbthOBCnJQe4us-72" value="" style="rounded=1;whiteSpace=wrap;html=1;sketch=1;curveFitting=1;jiggle=2;fontFamily=architects daughter;labelBackgroundColor=none;strokeWidth=2;fontSize=20;fillColor=#BAC8D3;strokeColor=#23445D;gradientColor=#BAC8D3;fontStyle=1" vertex="1" parent="1">
          <mxGeometry x="500.5" y="-381.12" width="90" height="30" as="geometry" />
        </mxCell>
        <mxCell id="a42rJ0YbthOBCnJQe4us-73" value="Reset" style="rounded=1;whiteSpace=wrap;html=1;sketch=1;curveFitting=1;jiggle=2;fontFamily=architects daughter;labelBackgroundColor=none;strokeWidth=2;fontSize=20;fillColor=#BAC8D3;strokeColor=#23445D;gradientColor=#BAC8D3;fontStyle=1" vertex="1" parent="1">
          <mxGeometry x="504" y="-377.5" width="83" height="25" as="geometry" />
        </mxCell>
        <mxCell id="a42rJ0YbthOBCnJQe4us-74" value="" style="endArrow=none;html=1;rounded=0;sketch=1;hachureGap=4;jiggle=2;curveFitting=1;fontFamily=Architects Daughter;fontSource=https%3A%2F%2Ffonts.googleapis.com%2Fcss%3Ffamily%3DArchitects%2BDaughter;strokeColor=#23445D;entryX=1;entryY=1;entryDx=0;entryDy=0;shadow=0;exitX=0.974;exitY=0.996;exitDx=0;exitDy=0;strokeWidth=2;exitPerimeter=0;fontStyle=1" edge="1" parent="1" source="a42rJ0YbthOBCnJQe4us-72" target="a42rJ0YbthOBCnJQe4us-73">
          <mxGeometry width="50" height="50" relative="1" as="geometry">
            <mxPoint x="599" y="-351.12" as="sourcePoint" />
            <mxPoint x="597" y="-353.62" as="targetPoint" />
          </mxGeometry>
        </mxCell>
        <mxCell id="a42rJ0YbthOBCnJQe4us-75" value="" style="endArrow=none;html=1;rounded=0;sketch=1;hachureGap=4;jiggle=2;curveFitting=1;fontFamily=Architects Daughter;fontSource=https%3A%2F%2Ffonts.googleapis.com%2Fcss%3Ffamily%3DArchitects%2BDaughter;strokeColor=#23445D;entryX=0.045;entryY=0.084;entryDx=0;entryDy=0;shadow=0;exitX=0.027;exitY=0.083;exitDx=0;exitDy=0;strokeWidth=2;exitPerimeter=0;entryPerimeter=0;fontStyle=1" edge="1" parent="1" source="a42rJ0YbthOBCnJQe4us-73" target="a42rJ0YbthOBCnJQe4us-72">
          <mxGeometry width="50" height="50" relative="1" as="geometry">
            <mxPoint x="507" y="-374.5" as="sourcePoint" />
            <mxPoint x="501" y="-378.5" as="targetPoint" />
          </mxGeometry>
        </mxCell>
        <mxCell id="a42rJ0YbthOBCnJQe4us-76" value="" style="endArrow=none;html=1;rounded=0;sketch=1;hachureGap=4;jiggle=2;curveFitting=1;fontFamily=Architects Daughter;fontSource=https%3A%2F%2Ffonts.googleapis.com%2Fcss%3Ffamily%3DArchitects%2BDaughter;strokeColor=#23445D;entryX=0.01;entryY=0.944;entryDx=0;entryDy=0;shadow=0;exitX=0.009;exitY=1.01;exitDx=0;exitDy=0;strokeWidth=2;exitPerimeter=0;entryPerimeter=0;fontStyle=1" edge="1" parent="1" source="a42rJ0YbthOBCnJQe4us-72" target="a42rJ0YbthOBCnJQe4us-73">
          <mxGeometry width="50" height="50" relative="1" as="geometry">
            <mxPoint x="512" y="-342.5" as="sourcePoint" />
            <mxPoint x="508" y="-347.5" as="targetPoint" />
          </mxGeometry>
        </mxCell>
        <mxCell id="a42rJ0YbthOBCnJQe4us-77" value="" style="endArrow=none;html=1;rounded=0;sketch=1;hachureGap=4;jiggle=2;curveFitting=1;fontFamily=Architects Daughter;fontSource=https%3A%2F%2Ffonts.googleapis.com%2Fcss%3Ffamily%3DArchitects%2BDaughter;strokeColor=#23445D;shadow=0;exitX=1.012;exitY=0.019;exitDx=0;exitDy=0;strokeWidth=2;exitPerimeter=0;entryX=0.968;entryY=0.06;entryDx=0;entryDy=0;entryPerimeter=0;fontStyle=1" edge="1" parent="1" source="a42rJ0YbthOBCnJQe4us-73" target="a42rJ0YbthOBCnJQe4us-72">
          <mxGeometry width="50" height="50" relative="1" as="geometry">
            <mxPoint x="596" y="-371.5" as="sourcePoint" />
            <mxPoint x="606" y="-375.5" as="targetPoint" />
          </mxGeometry>
        </mxCell>
        <mxCell id="a42rJ0YbthOBCnJQe4us-78" value="" style="rounded=1;whiteSpace=wrap;html=1;sketch=1;curveFitting=1;jiggle=2;fontFamily=architects daughter;labelBackgroundColor=none;strokeWidth=2;fontSize=20;fillColor=#BAC8D3;strokeColor=#23445D;gradientColor=#BAC8D3;fontStyle=0;shadow=0;" vertex="1" parent="1">
          <mxGeometry x="504" y="-261.62" width="90" height="30" as="geometry" />
        </mxCell>
        <mxCell id="a42rJ0YbthOBCnJQe4us-79" value="Reset" style="rounded=1;whiteSpace=wrap;html=1;sketch=1;curveFitting=1;jiggle=2;fontFamily=architects daughter;labelBackgroundColor=none;strokeWidth=1;fontSize=15;fillColor=#BAC8D3;strokeColor=#23445D;gradientColor=#BAC8D3;fontStyle=0;shadow=1;" vertex="1" parent="1">
          <mxGeometry x="512" y="-254" width="74" height="17" as="geometry" />
        </mxCell>
        <mxCell id="a42rJ0YbthOBCnJQe4us-80" value="" style="endArrow=none;html=1;rounded=0;sketch=1;hachureGap=4;jiggle=2;curveFitting=1;fontFamily=Architects Daughter;fontSource=https%3A%2F%2Ffonts.googleapis.com%2Fcss%3Ffamily%3DArchitects%2BDaughter;strokeColor=#23445D;entryX=0.99;entryY=0.969;entryDx=0;entryDy=0;shadow=1;exitX=0.974;exitY=0.996;exitDx=0;exitDy=0;strokeWidth=1;exitPerimeter=0;fontStyle=0;entryPerimeter=0;" edge="1" source="a42rJ0YbthOBCnJQe4us-78" target="a42rJ0YbthOBCnJQe4us-79" parent="1">
          <mxGeometry width="50" height="50" relative="1" as="geometry">
            <mxPoint x="602.5" y="-231.62" as="sourcePoint" />
            <mxPoint x="600.5" y="-234.12" as="targetPoint" />
          </mxGeometry>
        </mxCell>
        <mxCell id="a42rJ0YbthOBCnJQe4us-81" value="" style="endArrow=none;html=1;rounded=0;sketch=1;hachureGap=4;jiggle=2;curveFitting=1;fontFamily=Architects Daughter;fontSource=https%3A%2F%2Ffonts.googleapis.com%2Fcss%3Ffamily%3DArchitects%2BDaughter;strokeColor=#23445D;entryX=0.026;entryY=0.058;entryDx=0;entryDy=0;shadow=1;exitX=0.019;exitY=0.031;exitDx=0;exitDy=0;strokeWidth=1;exitPerimeter=0;entryPerimeter=0;fontStyle=0" edge="1" source="a42rJ0YbthOBCnJQe4us-79" target="a42rJ0YbthOBCnJQe4us-78" parent="1">
          <mxGeometry width="50" height="50" relative="1" as="geometry">
            <mxPoint x="510.5" y="-255" as="sourcePoint" />
            <mxPoint x="504.5" y="-259" as="targetPoint" />
          </mxGeometry>
        </mxCell>
        <mxCell id="a42rJ0YbthOBCnJQe4us-82" value="" style="endArrow=none;html=1;rounded=0;sketch=1;hachureGap=4;jiggle=2;curveFitting=1;fontFamily=Architects Daughter;fontSource=https%3A%2F%2Ffonts.googleapis.com%2Fcss%3Ffamily%3DArchitects%2BDaughter;strokeColor=#23445D;entryX=0.017;entryY=0.921;entryDx=0;entryDy=0;shadow=1;exitX=0.009;exitY=1.01;exitDx=0;exitDy=0;strokeWidth=1;exitPerimeter=0;entryPerimeter=0;fontStyle=0" edge="1" source="a42rJ0YbthOBCnJQe4us-78" target="a42rJ0YbthOBCnJQe4us-79" parent="1">
          <mxGeometry width="50" height="50" relative="1" as="geometry">
            <mxPoint x="515.5" y="-223" as="sourcePoint" />
            <mxPoint x="511.5" y="-228" as="targetPoint" />
          </mxGeometry>
        </mxCell>
        <mxCell id="a42rJ0YbthOBCnJQe4us-83" value="" style="endArrow=none;html=1;rounded=0;sketch=1;hachureGap=4;jiggle=2;curveFitting=1;fontFamily=Architects Daughter;fontSource=https%3A%2F%2Ffonts.googleapis.com%2Fcss%3Ffamily%3DArchitects%2BDaughter;strokeColor=#23445D;shadow=1;exitX=0.967;exitY=0.055;exitDx=0;exitDy=0;strokeWidth=1;exitPerimeter=0;entryX=0.968;entryY=0.06;entryDx=0;entryDy=0;entryPerimeter=0;fontStyle=0" edge="1" source="a42rJ0YbthOBCnJQe4us-79" target="a42rJ0YbthOBCnJQe4us-78" parent="1">
          <mxGeometry width="50" height="50" relative="1" as="geometry">
            <mxPoint x="599.5" y="-252" as="sourcePoint" />
            <mxPoint x="609.5" y="-256" as="targetPoint" />
          </mxGeometry>
        </mxCell>
        <mxCell id="a42rJ0YbthOBCnJQe4us-84" value="LOG" style="rounded=1;whiteSpace=wrap;html=1;sketch=1;hachureGap=4;jiggle=2;curveFitting=1;fontFamily=Architects Daughter;fontSource=https%3A%2F%2Ffonts.googleapis.com%2Fcss%3Ffamily%3DArchitects%2BDaughter;fontSize=31;strokeWidth=2;fillColor=#BAC8D3;gradientColor=#BAC8D3;strokeColor=#23445D;fontStyle=1" vertex="1" parent="1">
          <mxGeometry x="378" y="-380" width="76" height="30" as="geometry" />
        </mxCell>
        <mxCell id="a42rJ0YbthOBCnJQe4us-85" value="" style="rounded=1;whiteSpace=wrap;html=1;sketch=1;hachureGap=4;jiggle=2;curveFitting=1;fontFamily=Architects Daughter;fontSource=https%3A%2F%2Ffonts.googleapis.com%2Fcss%3Ffamily%3DArchitects%2BDaughter;fontSize=31;strokeWidth=2;fillColor=#BAC8D3;gradientColor=#BAC8D3;strokeColor=#23445D;fontStyle=1;shadow=0;" vertex="1" parent="1">
          <mxGeometry x="376" y="-260.5" width="80" height="34.5" as="geometry" />
        </mxCell>
        <mxCell id="a42rJ0YbthOBCnJQe4us-86" value="LOG" style="rounded=1;whiteSpace=wrap;html=1;sketch=1;hachureGap=4;jiggle=2;curveFitting=1;fontFamily=Architects Daughter;fontSource=https%3A%2F%2Ffonts.googleapis.com%2Fcss%3Ffamily%3DArchitects%2BDaughter;fontSize=25;strokeWidth=1;fillColor=#BAC8D3;gradientColor=#BAC8D3;strokeColor=#23445D;fontStyle=0;shadow=1;" vertex="1" parent="1">
          <mxGeometry x="384" y="-255" width="64" height="24" as="geometry" />
        </mxCell>
        <mxCell id="a42rJ0YbthOBCnJQe4us-87" value="" style="endArrow=none;html=1;rounded=0;sketch=1;hachureGap=4;jiggle=2;curveFitting=1;fontFamily=Architects Daughter;fontSource=https%3A%2F%2Ffonts.googleapis.com%2Fcss%3Ffamily%3DArchitects%2BDaughter;strokeColor=#23445D;shadow=1;exitX=0.979;exitY=0.108;exitDx=0;exitDy=0;strokeWidth=1;exitPerimeter=0;fontStyle=1" edge="1" parent="1" source="a42rJ0YbthOBCnJQe4us-86" target="a42rJ0YbthOBCnJQe4us-85">
          <mxGeometry width="50" height="50" relative="1" as="geometry">
            <mxPoint x="465" y="-256.5" as="sourcePoint" />
            <mxPoint x="469" y="-259.5" as="targetPoint" />
            <Array as="points">
              <mxPoint x="456" y="-261" />
            </Array>
          </mxGeometry>
        </mxCell>
        <mxCell id="a42rJ0YbthOBCnJQe4us-88" value="" style="endArrow=none;html=1;rounded=0;sketch=1;hachureGap=4;jiggle=2;curveFitting=1;fontFamily=Architects Daughter;fontSource=https%3A%2F%2Ffonts.googleapis.com%2Fcss%3Ffamily%3DArchitects%2BDaughter;strokeColor=#23445D;entryX=0.017;entryY=0.921;entryDx=0;entryDy=0;shadow=1;exitX=0.009;exitY=1.01;exitDx=0;exitDy=0;strokeWidth=1;exitPerimeter=0;entryPerimeter=0;fontStyle=0" edge="1" parent="1">
          <mxGeometry width="50" height="50" relative="1" as="geometry">
            <mxPoint x="377" y="-227" as="sourcePoint" />
            <mxPoint x="385" y="-234" as="targetPoint" />
          </mxGeometry>
        </mxCell>
        <mxCell id="a42rJ0YbthOBCnJQe4us-89" value="" style="endArrow=none;html=1;rounded=0;sketch=1;hachureGap=4;jiggle=2;curveFitting=1;fontFamily=Architects Daughter;fontSource=https%3A%2F%2Ffonts.googleapis.com%2Fcss%3Ffamily%3DArchitects%2BDaughter;strokeColor=#23445D;entryX=0.017;entryY=0.921;entryDx=0;entryDy=0;shadow=1;exitX=0.006;exitY=0.055;exitDx=0;exitDy=0;strokeWidth=1;exitPerimeter=0;entryPerimeter=0;fontStyle=0" edge="1" parent="1" source="a42rJ0YbthOBCnJQe4us-86">
          <mxGeometry width="50" height="50" relative="1" as="geometry">
            <mxPoint x="368" y="-251" as="sourcePoint" />
            <mxPoint x="376" y="-258" as="targetPoint" />
          </mxGeometry>
        </mxCell>
        <mxCell id="a42rJ0YbthOBCnJQe4us-90" value="" style="endArrow=none;html=1;rounded=0;sketch=1;hachureGap=4;jiggle=2;curveFitting=1;fontFamily=Architects Daughter;fontSource=https%3A%2F%2Ffonts.googleapis.com%2Fcss%3Ffamily%3DArchitects%2BDaughter;strokeColor=#23445D;entryX=0.017;entryY=0.921;entryDx=0;entryDy=0;shadow=1;strokeWidth=1;entryPerimeter=0;fontStyle=0" edge="1" parent="1">
          <mxGeometry width="50" height="50" relative="1" as="geometry">
            <mxPoint x="454" y="-228" as="sourcePoint" />
            <mxPoint x="447" y="-231.62" as="targetPoint" />
          </mxGeometry>
        </mxCell>
      </root>
    </mxGraphModel>
  </diagram>
</mxfile>
